<?xml version="1.0" standalone="no"?>
<!DOCTYPE svg PUBLIC "-//W3C//DTD SVG 1.1//EN" "http://www.w3.org/Graphics/SVG/1.1/DTD/svg11.dtd" >
<!--
2024-6-22: Created with FontForge (http://fontforge.org)
-->
<svg xmlns="http://www.w3.org/2000/svg" xmlns:xlink="http://www.w3.org/1999/xlink" version="1.1">
<metadata>
Created by FontForge 20230101 at Sat Jun 22 09:31:37 2024
 By Andrea Olivato
Icons.bio
</metadata>
<defs>
<font id="iconsbio2" horiz-adv-x="512" >
  <font-face 
    font-family="iconsbio2"
    font-weight="400"
    font-stretch="normal"
    units-per-em="512"
    panose-1="2 0 5 3 0 0 0 0 0 0"
    ascent="448"
    descent="-64"
    bbox="-32 -71.1113 622.289 448.399"
    underline-thickness="25.6"
    underline-position="-51.2"
    unicode-range="U+0020-F35D"
  />
    <missing-glyph />
    <glyph glyph-name="space" unicode=" " horiz-adv-x="200" 
 />
    <glyph glyph-name="3cketcom" unicode="&#xf308;" 
d="M65.335 301.153c-5.02539 0 -9.97266 -1.80566 -13.4277 -5.49707c-0.549805 -0.62793 -1.17871 -1.25586 -1.64941 -2.04199c-1.25684 -1.80566 -2.04199 -3.5332 -2.5127 -5.02539v-17.1191c5.73242 -1.80566 13.8203 -5.10449 22.459 -10.915
c6.36035 -4.31934 20.8877 -14.4492 29.6045 -34.0029c10.4443 -23.4004 5.6543 -44.7607 4.08301 -50.8066c-4.00488 -15.2344 -11.7002 -25.208 -16.1758 -30.8613c-4.94727 -6.28223 -13.5859 -16.8838 -28.6631 -23.4014
c-4.63281 -1.96387 -8.6377 -3.0625 -11.5439 -3.76953v-16.7266c0 -5.5752 2.51367 -10.915 6.83203 -14.4492v0l0.0791016 -0.078125c3.45508 -2.74902 7.69531 -4.31934 12.0928 -4.31934h209.747v-46.8018h-207.312c-19.3174 0 -38.0859 7.45996 -51.3574 21.5156
c-4.24023 4.55469 -8.16699 9.81641 -11.3857 16.0205v0c-4.08398 8.08789 -6.2041 16.9619 -6.2041 25.9922v62.5869h25.5215c4.94727 0 9.89453 0.942383 14.4492 3.0625c3.5332 1.64844 7.30273 4.24023 10.5225 8.16699
c7.77441 9.42285 7.06738 20.1816 6.83203 23.7148c-0.235352 3.53418 -1.64941 17.1191 -13.1143 25.5996c-0.392578 0.314453 -0.863281 0.628906 -1.25586 0.864258c-4.86914 3.21973 -10.6016 4.71191 -16.4131 4.71191h-26.542v50.4141
c0 25.9932 13.3496 50.4941 35.9658 63.4512c0.863281 0.548828 1.80566 1.02051 2.74805 1.49121v0c7.06738 3.69141 14.9209 5.57617 22.9307 5.57617h214.694v-47.3525h-211.004zM313.64 82.2969l103.342 0.785156c3.84766 0.0791016 7.61719 0.314453 11.3867 1.09961
c9.7373 1.96289 16.5693 5.81055 21.4375 10.4443v0c7.38184 7.06738 12.0156 16.5693 13.1934 26.6992l0.078125 0.470703c1.02148 9.10938 2.90527 25.5215 -6.6748 39.8926c-1.33496 2.04199 -4.86816 6.98926 -11.1504 11.3867
c-10.8369 7.61719 -22.1455 8.24512 -26.7783 8.24512l-42.248 0.314453l-18.2969 46.5664l76.4863 72.9521h-120.775v47.3525h187.681v-47.3525l-83.5537 -79.627h19.2393c6.75391 0 13.4287 -1.09961 19.7891 -3.29785c12.957 -4.55469 21.2021 -11.7012 24.9717 -14.999
c18.6895 -16.4912 25.3643 -40.2061 27.0137 -46.96c2.27734 -9.26562 10.4443 -47.8232 -13.7422 -81.5117c-2.35547 -3.37598 -13.1143 -17.8252 -33.2168 -28.2695c-19.5537 -10.1299 -37.6152 -11.0723 -46.5674 -10.9941h-101.614v46.8027z" />
    <glyph glyph-name="99designs" unicode="&#xf309;" 
d="M458.522 318.43h53.4775v-252.702h-50.6504v18.376c-4.24023 -5.10449 -12.957 -14.2139 -27.0137 -19.7891c-11.3867 -4.55469 -21.0449 -4.71191 -27.249 -4.71191c-16.9619 -0.078125 -30.3896 4.94727 -38.1641 8.6377
c-15.627 7.53906 -25.0508 17.6689 -28.9766 22.3018c-2.74902 3.21973 -10.6797 13.0361 -15.627 27.249c-2.90625 8.24609 -4.08398 15.9414 -4.47656 18.6904c-0.62793 4.47559 -0.942383 8.24512 -1.09961 11.1504l-46.8018 -81.8262h-61.8018l40.1279 70.2041
c-8.32422 0.62793 -21.4385 2.74805 -35.6514 10.0518c-4.31934 2.19824 -19.3965 10.3652 -32.2754 27.249c-2.9834 3.92578 -5.18262 7.45996 -6.6748 10.0518l-67.6123 -117.557h-61.8008l40.6768 70.2041c-5.96777 0.549805 -14.6055 1.88477 -24.5 5.5752
c-29.0557 10.7588 -43.9756 32.5889 -47.3525 37.8506c-12.8779 19.8672 -14.6846 38.793 -14.999 43.4258c-0.313477 4.00488 -1.25586 20.5742 6.12598 40.1279c2.9834 7.77441 13.1924 33.6885 41.2266 49.5508c20.8096 11.7793 40.4414 11.7793 47.9014 11.7002
c7.69629 -0.078125 37.6934 -0.942383 62.3516 -23.4014c8.95215 -8.16602 14.5273 -16.8047 17.8252 -22.8516l5.33984 7.22461c6.28223 8.48145 13.7432 16.0195 22.3809 22.0664c11.7002 8.24609 28.8984 16.4121 52.2207 16.9619
c9.2666 0.235352 31.2539 -0.549805 52.9277 -14.4492c3.92676 -2.5127 16.0195 -10.6797 26.4639 -25.5996c2.74805 -3.92676 9.42285 -13.585 13.1143 -27.0137c2.5127 -8.95215 3.21973 -17.8252 3.37598 -20.5742
c0.236328 -2.90527 0.314453 -5.41797 0.314453 -7.22461c6.6748 5.57617 17.2764 12.7217 31.7256 16.7266c6.36035 1.72754 27.877 6.98926 47.9014 -0.863281c5.49707 -2.12109 13.8213 -6.43945 21.9883 -12.8008c2.19824 -1.80566 4.00488 -3.37598 5.26074 -4.47559
v90.4639zM94.1543 187.288c23.6367 0 42.876 19.1611 42.876 42.876c0 23.7158 -19.1602 42.876 -42.876 42.876c-23.7148 0 -42.876 -19.1602 -42.876 -42.876c0 -23.7148 19.1611 -42.876 42.876 -42.876zM257.492 187.288c23.7148 0 42.876 19.1611 42.876 42.876
c0 23.7158 -19.1611 42.876 -42.876 42.876c-23.7158 0 -42.876 -19.1602 -42.876 -42.876c0 -23.7148 19.1602 -42.876 42.876 -42.876zM416.589 109.625c24.5791 0 44.5254 19.9453 44.5254 44.5244s-19.9463 44.5254 -44.5254 44.5254
s-44.5254 -19.9463 -44.5254 -44.5254s19.9463 -44.5244 44.5254 -44.5244z" />
    <glyph glyph-name="accupass" unicode="&#xf100;" 
d="M376.933 102.243v289.531c0 7.45996 -6.04688 13.4277 -13.4287 13.585l-179.436 -18.8467l126.901 -56.3828c7.14551 -3.14062 11.7783 -10.2871 11.7783 -18.1396v-227.102l42.3271 4.47559c6.51758 0.864258 11.6221 6.2041 11.8574 12.8789zM387.77 447.843v0
c15.9404 1.64941 28.8984 -9.89453 28.8984 -25.835v-338.298c0 -15.7051 -12.6436 -29.8398 -28.2705 -31.8027l-65.5703 -6.91113v-89.1289c0 -6.6748 -3.37695 -12.957 -9.03125 -16.6475c-3.29785 -2.12012 -7.06738 -3.21973 -10.8359 -3.21973
c-2.74902 0 -5.49707 0.549805 -8.08887 1.72754l-187.681 83.3965c-7.14648 3.21973 -11.7793 10.2871 -11.7793 18.1396v3.84766v352.275v3.84766c0 10.209 7.61719 18.7686 17.7471 19.7891z" />
    <glyph glyph-name="activecampaign" unicode="&#xf101;" 
d="M224.782 171.449c-7.11133 0 -14.293 2.48828 -21.7598 7.75098c-18.0625 12.1602 -111.218 76.9424 -112.143 77.582l-1.28027 0.639648v32.1426c0 7.11133 3.12891 13.084 8.74707 15.8574c5.90234 2.84473 13.3691 1.91992 19.9111 -2.77344
c14.0088 -9.03027 149.476 -103.11 150.756 -104.035l3.12891 -2.2041l-3.12891 -2.20508s-9.03125 -5.90234 -19.3428 -13.084c-8.67578 -6.54199 -16.7822 -9.6709 -24.8887 -9.6709zM406.4 227.84c11.5195 -8.10645 17.4219 -18.0625 17.1377 -29.2979v-5.61719
c-0.285156 -9.03125 -3.41406 -21.4756 -17.4229 -32.0713c-6.54199 -4.97754 -313.955 -224.854 -313.955 -224.854v53.4756c0 14.3643 1.56445 21.1914 17.4219 31.7871c13.3691 8.39062 223.289 153.812 251.022 173.155
c-27.7334 19.0576 -250.738 174.436 -250.738 174.436c-10.3105 7.4668 -18.7021 13.4395 -18.7021 29.2979v49.8486l4.125 -2.77344c12.4443 -8.74609 303.004 -211.484 311.111 -217.387z" />
    <glyph glyph-name="activision" unicode="&#xf102;" 
d="M337.197 -64l-24.3438 65.0205h-113.786l-24.3438 -65.0205h-97.5312l178.808 512l178.808 -512h-97.6104zM226.866 94.4688h54.1846l-27.1709 89.4434l-27.0137 -89.4434z" />
    <glyph glyph-name="advisorycloud" unicode="&#xf103;" 
d="M146.219 269.428c-6.2041 0.549805 -11.5439 0.707031 -15.627 0.707031c0.785156 3.76953 2.04102 8.87402 4.16113 14.6846c5.7334 15.7061 13.8213 26.0713 17.5117 30.626c19.8682 24.8145 47.1953 35.7305 57.5615 39.3428
c4.63281 1.64844 24.1865 8.08789 50.6494 7.30273c9.03125 -0.314453 28.6631 -1.09961 51.3574 -10.915c8.48145 -3.69141 40.6777 -18.1406 58.9746 -50.9648c10.4443 -18.6895 12.7998 -37.0645 13.1143 -39.3418c0.62793 -5.49707 0.785156 -10.1309 0.706055 -13.5068
c16.6484 -0.236328 43.3477 -3.29883 70.2822 -18.9258c7.69629 -4.47559 20.6533 -12.0928 32.7461 -26.9346c18.376 -22.459 22.3809 -45.8604 23.3232 -52.457c1.41309 -10.208 2.9834 -31.8818 -7.30371 -55.7539c-8.6377 -20.0244 -21.5166 -31.9609 -27.6416 -37.5361
c-12.4072 -11.2295 -24.1074 -16.9619 -30.626 -20.0244c-25.3643 -12.0938 -48.5293 -13.7432 -59.7588 -13.8213c-30.7832 -0.314453 -53.2422 9.34473 -58.9746 12.0146c-23.8721 10.915 -38.2432 26.0713 -42.9541 31.333
c-5.96875 6.6748 -10.209 12.8779 -13.1143 17.5117c3.0625 6.43848 6.75293 15.5479 9.10938 26.9346c1.02051 5.02539 4.00488 20.5742 1.49121 40.7559c-3.29785 26.4639 -13.8994 44.5254 -16.0195 48.0586c-8.48047 14.1348 -17.9043 22.8516 -24.7363 29.1338
c-14.7627 13.5068 -28.5049 20.6533 -36.4365 24.7363c-7.53906 3.92676 -18.375 9.42383 -33.5312 13.1143c-10.7578 2.66992 -20.3389 3.5332 -24.2646 3.92578zM297.62 22.7734h-184.54c-12.4863 1.17773 -43.2686 5.81055 -71.3818 29.6045
c-9.89453 8.40234 -32.9033 28.5059 -39.8135 63.1357c-5.33984 26.8564 1.72754 49.002 5.88965 59.21c11.4648 28.3486 31.9609 43.1904 41.7764 50.0225c34.2383 24.0293 69.9678 23.6367 82.0615 23.3223c10.209 -0.235352 34.002 -1.09863 60.2305 -15.0771
c8.95215 -4.71191 33.8457 -18.4541 50.0225 -48.0586c3.84766 -7.06738 14.5273 -27.1709 13.585 -52.9277c-0.549805 -15.2344 -4.94727 -27.249 -5.81055 -29.6045c-2.74902 -7.38184 -6.04688 -13.2715 -8.7168 -17.5117l0.942383 -3.1416
c4.94727 -10.6006 10.3652 -18.5322 14.6055 -23.7939c4.39844 -5.5752 8.24609 -9.34473 15.3135 -16.2549c7.45996 -7.30273 11.0723 -10.0518 13.3496 -11.6221c4.86914 -3.53418 9.34473 -5.88965 12.4863 -7.30273zM87.2441 135.146
c0 7.38086 -6.75293 13.3496 -14.999 13.3496c-8.24512 0 -14.998 -5.96875 -14.998 -13.3496c0 -7.38184 6.75293 -13.3506 14.998 -13.3506c8.24609 0 14.999 5.96875 14.999 13.3506zM142.685 135.146c0 7.38086 -6.75293 13.3496 -14.999 13.3496
c-8.32324 0 -14.998 -5.96875 -14.998 -13.3496c0 -7.38184 6.75293 -13.3506 14.998 -13.3506c8.32422 0 14.999 5.96875 14.999 13.3506zM197.968 135.146c0 7.38086 -6.75293 13.3496 -14.998 13.3496c-8.32422 0 -14.999 -5.96875 -14.999 -13.3496
c0 -7.38184 6.75293 -13.3506 14.999 -13.3506c8.32324 0 14.998 5.96875 14.998 13.3506z" />
    <glyph glyph-name="airchat" unicode="&#xf316;" 
d="M511.922 192v-1.64941v0v-254.351h-1.33496h-0.707031c-46.0957 0.078125 -89.3643 12.3291 -126.744 33.7666c-37.457 -21.5166 -80.8828 -33.7666 -127.136 -33.7666c-141.35 0 -255.922 114.65 -255.922 256s114.572 256 255.922 256s255.922 -114.65 255.922 -256z
M357.929 63.9219c37.3789 30.1543 61.3301 76.3281 61.252 128.078c0 22.0664 -4.39746 43.1113 -12.251 62.3506h-33.0596l-13.0361 -40.5986c-4.24023 -13.1924 -16.5693 -22.1445 -30.3896 -22.1445h-150.302c-13.8994 0 -26.1504 8.95215 -30.3906 22.1445
l-13.0352 40.5986h-34.0811c-7.93164 -19.2393 -12.25 -40.2842 -12.25 -62.3506c0 -51.8281 23.9502 -97.9238 61.3301 -128.078c27.5625 24.1074 63.6064 38.792 103.106 38.792c39.499 0 75.6221 -14.6055 103.106 -38.792z" />
    <glyph glyph-name="alleventsin" unicode="&#xf2f9;" 
d="M480.039 315.995c7.77441 -15.9414 7.45996 -10.8369 7.38184 -125.408c0 -114.022 0.392578 -107.033 -7.14648 -123.132c-5.18262 -10.7578 -16.5693 -22.1445 -30.625 -30.626c-24.1084 -14.5273 -157.841 -91.4062 -163.809 -94.0762
c-14.5283 -6.75293 -30.3115 -8.48047 -43.8184 -4.94727c-13.4287 3.45605 -9.89453 1.57129 -149.124 81.5117c-18.5332 10.6016 -36.6729 21.5957 -40.5205 24.501c-12.4863 9.65918 -21.5166 23.6367 -24.8145 38.5566c-1.96387 8.55957 -3.0625 60.624 -3.1416 143.549
c-0.078125 45.7031 0.235352 57.0107 1.41406 65.2568c3.29785 22.3018 10.8369 35.8867 26.6992 47.9805c7.38184 5.5752 162.787 95.8818 174.174 101.064c8.40234 4.00488 22.8516 7.77441 29.4482 7.77441c6.6748 0 21.8301 -4.00488 29.8398 -7.77441
c10.8369 -5.26074 166.479 -94.7822 173.311 -99.7295c9.34473 -6.91113 16.0986 -14.7637 20.7314 -24.501zM443.288 186.188c1.72754 2.5918 1.88477 4.08398 1.57129 13.1143c-1.33496 29.291 -17.1982 58.1104 -42.6406 77.3496
c-18.6895 14.2139 -42.4053 21.3604 -66.1992 20.3389c-36.751 -1.64844 -66.5127 -18.7676 -86.5371 -49.8652l-3.76953 -5.88965l-5.88965 8.63867c-15.8623 23.4014 -39.1064 39.1064 -67.0625 45.1533c-12.6426 2.74805 -33.0605 2.27734 -46.0176 -0.864258
c-13.585 -3.37598 -22.3018 -7.06738 -33.1387 -14.3701c-11.1504 -7.45996 -14.7627 -10.915 -16.0977 -15.2344c-1.33496 -4.63281 0.62793 -10.0518 4.79004 -12.8789c5.02539 -3.45508 9.42383 -2.5127 18.376 3.84863c9.58008 6.83105 20.9668 12.4072 29.9189 14.8408
c9.50098 2.5918 29.29 2.82715 38.792 0.47168c25.5215 -6.43945 44.6826 -21.8311 56.6973 -45.8604c3.0625 -6.20312 6.36035 -15.7842 6.36035 -18.6895v-2.35547h-59.916c-57.0117 0 -60.4668 -0.0791016 -67.4551 -1.88477
c-24.2656 -6.2041 -37.6934 -22.6943 -37.6934 -46.4883c0 -7.38184 2.82715 -18.8467 6.28223 -25.7578c11.0723 -21.8301 33.374 -38.1641 58.7383 -43.0322v0c11.4648 -2.19922 35.4941 -1.33496 46.8809 1.64844c24.1865 6.36133 46.96 22.6162 61.0166 43.8184
c2.9834 4.47656 5.49609 8.08887 5.65332 8.08887s2.66992 -3.69141 5.6543 -8.24609c10.3652 -15.4697 25.3643 -28.3477 43.583 -37.1436c31.9609 -15.3906 73.502 -12.25 103.342 8.08887c12.4072 8.40234 16.4121 13.8994 15.0771 20.417
c-0.785156 3.76953 -5.26074 8.00977 -9.26562 8.6377c-4.31934 0.786133 -6.91113 -0.392578 -14.4492 -5.96777c-7.53906 -5.5752 -19.2393 -11.1504 -29.291 -14.0566c-6.125 -1.64844 -9.7373 -2.04102 -20.9668 -2.12012c-16.0977 0 -23.166 1.49219 -34.9443 7.45996
c-20.5742 10.5234 -35.7305 27.8779 -42.7979 49.1582c-1.33496 3.92676 -2.43457 8.40332 -2.43457 9.97363v2.90527l87.9512 0.157227c82.5322 0.314453 88.0293 0.392578 90.9346 1.96289c1.64941 0.864258 3.92676 2.98438 4.94727 4.63281zM139.622 106.248
c-1.02051 0.157227 -4.16211 0.863281 -6.98926 1.41309s-9.03027 2.90527 -13.8203 5.10449c-20.0244 9.58008 -31.333 27.6416 -29.7617 47.2734c0.941406 10.9941 5.81055 16.9619 16.7256 20.3389c5.26172 1.64941 9.7373 1.80566 67.5342 1.80566h61.958v-4.31836
c0 -12.7217 -9.7373 -33.4531 -21.752 -46.7246c-9.03027 -9.89355 -24.7363 -18.9248 -39.3428 -22.7725c-7.22461 -1.88477 -29.8398 -3.21973 -34.5518 -2.12012zM256 202.287c-0.942383 2.5127 1.57031 13.3496 5.10449 21.752
c9.89453 23.7158 28.8984 40.6777 54.0264 48.2949c7.53906 2.27734 9.50195 2.43457 24.501 2.43457c15.0771 0 16.9619 -0.157227 24.7363 -2.51367c15.4697 -4.63281 26.1494 -11.0723 36.8291 -21.9873c11.9365 -12.0938 20.417 -29.2119 21.2812 -42.248
l0.470703 -7.14551h-83.2393c-75.9355 -0.0791016 -83.1602 0.078125 -83.71 1.41309v0z" />
    <glyph glyph-name="alltrails" unicode="&#xf104;" 
d="M464.099 -0.942383c-12.251 -0.157227 -23.6377 3.0625 -34.4736 8.79492c-12.251 6.51758 -22.6953 15.4697 -33.0605 24.501c-14.6064 12.7217 -28.8193 25.9922 -44.6826 37.3008c-16.1768 11.543 -33.6094 20.3379 -53.2412 24.5791
c-12.4072 2.66992 -24.9717 3.21973 -37.6152 2.35547c-12.4072 -0.863281 -24.7354 -2.5918 -36.8291 -5.81055c-15.5488 -4.16211 -30.5469 -9.65918 -44.6826 -17.1982c-13.1924 -6.98828 -26.1494 -14.4492 -39.1064 -21.9873
c-8.24512 -4.86914 -16.1768 -10.2871 -24.3438 -15.3135c-14.2129 -8.79492 -28.4268 -17.668 -43.4258 -25.1279c-8.79492 -4.31934 -17.8252 -8.16699 -27.249 -10.7588c-7.45996 -2.12012 -14.998 -2.98438 -22.8516 -1.64941
c-11.7002 1.96387 -20.6523 13.6641 -22.2227 23.4014c-1.41406 8.95215 1.02051 17.041 4.55469 24.9717c5.18262 11.5439 11.8574 22.2236 18.7676 32.7461c11.4648 17.6689 23.2441 35.0234 34.8662 52.5352c8.00977 12.0938 15.9414 24.2646 23.9512 36.3584
c6.04688 9.10938 12.1719 18.2188 18.2188 27.3271c6.98828 10.4443 13.8994 20.9678 20.8877 31.4111c8.16699 12.1719 16.334 24.3438 24.4219 36.5938c13.4287 20.2607 26.6211 40.6777 40.2852 60.7021c10.6797 15.627 20.417 32.0391 32.9033 46.3311
c3.29785 3.76953 7.06738 7.14648 11.0723 10.209c5.26074 4.00488 11.3076 5.6543 17.9824 4.00488c3.69141 -0.942383 6.91016 -2.90527 9.42383 -5.6543c2.90527 -3.14062 5.41797 -6.5957 7.61719 -10.2871c5.26074 -8.79492 8.55957 -18.5322 12.1719 -28.1123
c3.76855 -9.97363 7.30273 -20.0244 10.9932 -30.0762c3.6123 -9.7373 6.98926 -19.5537 10.9941 -29.0557c2.43457 -5.65332 5.41797 -11.2295 8.95215 -16.333c4.79004 -6.91113 12.0146 -7.53906 19.082 -2.82715c5.33984 3.5332 8.95215 8.55957 12.6436 13.5068
c4.08301 5.41797 7.85254 11.1504 12.0146 16.4902c6.83105 8.7168 15.9404 12.5645 27.0127 11.2295c6.75391 -0.863281 12.0156 -4.71191 16.4912 -9.65918c8.79492 -9.58008 15.0771 -20.8877 20.7314 -32.4316c5.33984 -10.915 10.6797 -21.8301 15.9414 -32.7461
c4.31836 -8.95215 8.40234 -17.9043 12.7998 -26.8564c6.0459 -12.4072 12.25 -24.6572 18.2178 -37.0645c7.30371 -15.0781 14.4492 -30.1553 21.7529 -45.3105c5.26074 -10.916 10.6006 -21.8311 15.7051 -32.8252c4.16211 -8.87305 7.93164 -17.9043 9.81641 -27.5625
c2.9834 -15.1562 1.02051 -29.5264 -7.77441 -42.4834c-7.77441 -11.4648 -19.1611 -16.8057 -32.5889 -18.1406c-1.96387 -0.235352 -4.08398 -0.078125 -6.125 -0.078125zM413.841 119.519c-0.392578 2.19922 -0.628906 4.39844 -1.17871 6.51855
c-1.96289 8.00977 -5.65332 15.2344 -9.58008 22.3799c-7.45996 13.6641 -15.0771 27.1709 -22.7725 40.6777c-3.76953 6.5957 -7.53906 13.1143 -12.8008 18.6895c-4.55371 4.86816 -9.81543 8.48047 -16.7256 7.38184
c-4.79102 -0.707031 -9.50195 -2.27734 -13.9785 -4.00488c-9.03027 -3.6123 -17.8252 -8.00977 -27.3271 -10.6016c-15.5488 -4.24023 -33.6885 2.19824 -43.5049 15.3125c-8.16699 10.9941 -12.4072 23.4805 -14.5273 36.8301
c-1.33496 8.32324 -2.43457 16.6475 -5.33984 24.6572c-3.92676 10.7588 -17.5117 16.2549 -27.4062 9.81641c-2.43457 -1.64941 -4.94727 -3.29883 -7.06738 -5.33984c-8.00977 -7.38184 -14.5273 -16.0195 -20.7314 -24.8936
c-7.77441 -10.9941 -15.2344 -22.2236 -22.6162 -33.5312c-10.1299 -15.4697 -20.0244 -31.1758 -30.1543 -46.5674c-9.50195 -14.4482 -19.3965 -28.6621 -28.9766 -43.1113c-7.06738 -10.6016 -14.0566 -21.2021 -20.7314 -32.0391
c-3.84766 -6.125 -7.45996 -12.4863 -9.10938 -19.6318c-2.19824 -9.34473 4.39746 -16.6484 13.9785 -15.3135c3.76953 0.549805 7.61719 1.49219 11.0723 3.06348c6.59668 3.0625 13.1143 6.28125 19.1611 10.1299c12.5635 8.08789 24.8926 16.5693 37.2217 24.9717
c14.4492 9.81543 28.5059 20.1816 43.5039 29.1338c10.1299 6.0459 20.5742 11.0723 31.9609 14.1348c14.4492 3.92676 29.0557 4.86914 44.0537 3.92676c21.124 -1.33496 40.7559 -7.38184 59.0527 -17.748c11.0732 -6.28223 21.9092 -12.957 32.9033 -19.4746
c5.49707 -3.29785 11.0723 -6.28223 17.2764 -7.93066c5.33984 -1.41406 10.7578 -1.96387 16.0977 0.392578c5.96875 2.74805 8.08887 5.73242 8.24609 12.1709z" />
    <glyph glyph-name="aluacom" unicode="&#xf30a;" 
d="M451.141 262.439l60.8594 -140.957h-21.3594l-14.6064 34.4736h-56.6963l-14.8418 -34.4736h-21.3604l61.0166 140.957h6.98828zM468.024 175.195l-20.1816 48.4512l-20.1025 -48.4512h40.2842zM337.669 262.439h19.9453v-85.5166
c0 -15.7842 -3.21875 -29.7617 -11.9355 -39.9707v0c-9.03125 -10.6016 -20.417 -15.3916 -35.1807 -15.3916c-15.1553 0 -26.4639 4.79004 -35.4941 15.3916v0c-8.7168 10.2871 -11.9365 24.1865 -11.9365 39.9707v85.5166h19.9463v-79.7842v0
c0 -14.2139 2.12012 -24.501 6.51758 -31.1758c4.31934 -6.51758 11.0723 -9.89453 21.0459 -9.97266c9.7373 0.078125 16.4121 3.45508 20.7305 9.97266c4.39746 6.6748 6.51855 16.9619 6.51855 31.1758v0v79.7842h-0.157227zM223.646 140.722l8.7168 -19.2393h-64.9424
l-0.157227 140.957h19.9463l0.078125 -121.718h36.3584zM60.9375 262.439h6.98926l60.9375 -140.879h-21.3604l-14.6846 34.4736h-56.6963l-14.7637 -34.4736h-21.3594zM84.8096 175.195l-20.1816 48.4512l-20.1025 -48.4512h40.2842z" />
    <glyph glyph-name="amazingradio" unicode="&#xf356;" 
d="M309.163 -64c-141.35 0 -256 114.65 -256 256s114.65 256 256 256c55.9121 0 107.583 -17.9824 149.674 -48.373v-415.254c-42.0908 -30.3906 -93.7617 -48.373 -149.674 -48.373zM309.163 275.317c-46.0166 0 -83.3174 -37.2998 -83.3174 -83.3174
s37.3008 -83.3174 83.3174 -83.3174c46.0176 0 83.3184 37.2998 83.3184 83.3174s-37.3008 83.3174 -83.3184 83.3174z" />
    <glyph glyph-name="amazonwishlist" unicode="&#xf105;" 
d="M159.961 179.907c-17.7471 -62.5088 -35.2588 -124.624 -52.3779 -187.21c-1.17773 -4.55469 -3.37695 -7.06738 -8.32422 -6.83203c-5.18262 0 -10.3652 -0.157227 -15.4697 -0.157227c-7.61719 0 -10.2871 2.04199 -12.3291 9.34473
c-2.43457 10.8369 -6.125 21.4385 -9.34473 32.1182c-13.5068 42.1689 -27.249 84.3379 -40.6768 126.508c-7.06836 22.2227 -14.0566 44.4463 -21.0459 66.6699c-0.314453 0.942383 -0.157227 2.04199 -0.314453 3.37695h24.5791
c3.53418 0 4.86914 -1.02148 5.96875 -4.39844c1.57031 -4.94727 3.0625 -9.89355 4.63281 -14.7627c18.376 -58.1104 36.5156 -116.143 54.9697 -174.253c19.0029 61.8018 35.1016 124.467 53.084 186.582c0.864258 3.6123 2.82715 7.06738 6.98926 6.91016
c7.30273 0 14.6846 0.078125 21.9883 0c2.59082 0 4.63281 -1.25684 5.73242 -3.69043c17.9824 -63.1367 33.8447 -127.058 52.6133 -190.037c19.8672 63.1357 39.2637 126.351 58.8955 189.565c1.09961 3.0625 2.82715 4.16211 6.04688 4.16211h20.2598
c4.00488 0 4.94727 -1.09961 3.69141 -5.10449c-1.80664 -5.88965 -3.76953 -11.7002 -5.6543 -17.5898c-22.0664 -70.125 -44.918 -140.015 -67.1416 -210.14c-1.57031 -3.92676 -4.00488 -5.33984 -8.16699 -5.10449c-6.125 0.392578 -12.3281 0.313477 -18.4531 0.313477
c-4.71191 0.0791016 -6.36133 1.41406 -7.69629 5.96875c-17.5898 62.5859 -34.7871 125.251 -52.4561 187.76zM409.443 334.214c7.06738 -1.02148 14.2129 -1.02148 21.4375 -1.17871c-39.4209 -9.7373 -66.5127 -47.5088 -61.8008 -88.1865
c-8.95215 30.626 -31.333 54.499 -63.3721 60.4668c-6.98926 1.41309 -14.0566 1.72754 -21.124 1.41309c-1.41309 0 -2.74805 -0.235352 -4.31934 0c45.625 15.4707 63.9219 43.8184 61.8018 91.5635c10.1299 -33.4531 31.0967 -59.3672 67.377 -64.0781zM350.547 345.679
c-0.62793 -14.1348 -8.48047 -23.0869 -19.0029 -30.3906c13.5068 -2.19824 21.124 -8.87305 29.2119 -19.6318c1.64941 12.1719 7.93164 20.9668 18.0615 27.6416c0.707031 0.47168 1.57031 0.707031 1.96289 1.80664c-14.999 1.41309 -22.3018 8.55957 -30.2334 20.5742z
M417.139 287.804c-0.864258 0 -1.72754 0 -2.5918 -0.078125c27.5635 9.34473 40.835 28.2695 39.4209 58.0312c0.549805 -0.942383 0.864258 -1.33496 1.02148 -1.80566c6.125 -18.5332 19.71 -34.2383 39.5771 -37.6934
c4.94727 -1.02148 9.89453 -1.17773 14.9209 -1.09961c0.785156 0 1.57031 0 2.5127 -0.314453c-28.3486 -9.1875 -40.9131 -27.249 -40.3633 -57.0107c-9.34473 26.0713 -26.1494 40.1279 -54.498 39.9707zM476.034 299.74
c-6.98926 1.02051 -11.3076 5.5752 -15.627 11.0723c-1.72754 -7.45996 -6.20312 -12.3291 -10.9941 -17.1191c0.47168 -0.235352 0.707031 -0.392578 0.942383 -0.47168c5.96875 -1.25586 10.4443 -4.71094 14.0566 -9.34473
c0.314453 -0.470703 0.864258 -0.863281 1.49219 -1.49121c1.25684 7.06738 6.36035 11.6221 10.1299 17.3545zM387.612 231.892c-1.49219 0.0791016 -2.98438 0.0791016 -4.47656 0.157227c16.6484 6.28223 25.1289 17.8262 24.0303 35.9658h0.549805
c6.91016 -16.0977 17.04 -25.9141 35.5723 -24.6572c-3.21973 -2.12109 -6.5957 -3.45605 -9.81543 -5.49707c-10.6016 -6.6748 -14.999 -17.5908 -14.6846 -29.8408c-0.549805 0.864258 -0.942383 1.33496 -1.17871 1.88477
c-5.49609 12.3291 -16.2549 21.3594 -29.9971 21.9873zM420.437 238.488c-2.90527 2.12012 -5.49707 4.08398 -8.48047 6.28223c-1.25684 -2.35547 -2.5127 -4.71191 -3.76953 -7.14551c-0.549805 -1.17871 -0.392578 -2.27734 0.707031 -3.06348
c6.125 -5.10352 7.61719 -0.470703 11.543 3.92676z" />
    <glyph glyph-name="anobii" unicode="&#xf33e;" 
d="M49.2363 217.129c35.1807 0 44.6045 -17.7471 44.6045 -50.1006v-49.3154h-27.7207v12.25h-0.392578c-6.59668 -10.3652 -18.6895 -14.5273 -30.9395 -14.5273c-18.2969 -0.078125 -34.7881 10.2871 -34.7881 29.8408c0 33.5312 40.9912 34.1592 66.1201 34.1592
c0 10.6016 -8.87305 17.3545 -19.3174 17.3545c-9.81641 0 -18.0615 -4.39746 -24.501 -11.543l-16.0977 16.333c11.0723 10.3662 27.1699 15.5488 43.0322 15.5488v0zM262.125 217.129c30.1543 0 54.2627 -19.9463 54.2627 -50.8857
c0 -30.9404 -24.1084 -50.8857 -54.2627 -50.8857s-54.2627 19.9453 -54.2627 50.8857c0 30.9395 24.1084 50.8857 54.2627 50.8857v0zM355.887 268.643v-64.2354h0.392578c6.83203 9.34473 18.4541 12.7998 30.9404 12.7998c27.7197 0 44.6035 -24.7363 44.6035 -51.6709
c0 -29.3691 -19.082 -50.1006 -48.0586 -50.1006c-13.6641 0 -25.2861 8.16699 -29.9189 15.1562h-0.392578v-12.8008h-27.7207v150.852h30.1543v0zM163.259 217.129c30.5469 0 36.2012 -19.9463 36.2012 -45.8604v-53.4775h-30.1543v49.002
c-0.0791016 10.915 -0.864258 24.0293 -15.7061 24.0293c-15.7051 0 -18.0605 -12.1719 -18.0605 -24.7363v-48.2949h-30.1553v96.9824h28.8984v-13.1934h0.392578c4.00488 7.53906 13.8994 15.5488 28.584 15.5488zM470.852 214.773v-96.9824h-30.1543v96.9824h30.1543z
M509.565 214.773v-96.9824h-30.1543v96.9824h30.1543zM66.1201 160.274h-7.45996c-9.2666 0 -29.7617 -0.785156 -29.7617 -13.9775c0 -7.14551 7.61719 -10.6016 14.292 -10.6016c11.8574 0 22.9297 6.2041 22.9297 18.1406v6.43848v0zM262.125 190.822
c-15.0771 0 -24.1074 -9.97363 -24.1074 -24.501s9.03027 -24.5791 24.1074 -24.5791s24.1084 9.97363 24.1084 24.5791c0 14.5273 -9.03125 24.501 -24.1084 24.501zM377.64 190.822c-15.0781 0 -24.1084 -9.97363 -24.1084 -24.501s9.03027 -24.5791 24.1084 -24.5791
c15.0771 0 24.1074 9.97363 24.1074 24.5791c0 14.6064 -9.03027 24.501 -24.1074 24.501v0zM455.774 262.597c9.65918 0 17.5117 -7.77441 17.5117 -17.3545c0 -9.58105 -7.85254 -17.3555 -17.5117 -17.3555s-17.5117 7.77441 -17.5117 17.3555
c0.078125 9.58008 7.85254 17.3545 17.5117 17.3545zM494.488 262.597c9.65918 0 17.5117 -7.77441 17.5117 -17.3545c0 -9.58105 -7.85254 -17.3555 -17.5117 -17.3555s-17.5117 7.77441 -17.5117 17.3555c0.0791016 9.58008 7.93164 17.3545 17.5117 17.3545z" />
    <glyph glyph-name="apple-books" unicode="&#xf106;" 
d="M512 96.1963v-18.375c0 -5.18359 -0.078125 -10.2871 -0.235352 -15.4707c-0.314453 -11.2295 -0.942383 -22.5371 -2.98438 -33.6094c-2.04199 -11.2295 -5.33984 -21.752 -10.5225 -31.9609c-5.10449 -10.0518 -11.7793 -19.2393 -19.7891 -27.249
s-17.1973 -14.6846 -27.249 -19.7891c-10.209 -5.18262 -20.7314 -8.48047 -31.9609 -10.5225c-11.0723 -1.96289 -22.3799 -2.66992 -33.6094 -2.98438c-5.18359 -0.157227 -10.2871 -0.235352 -15.4707 -0.235352h-18.375h-191.607h-18.375
c-5.18359 0 -10.2871 0.078125 -15.4707 0.235352c-11.2295 0.314453 -22.5371 0.942383 -33.6094 2.98438c-11.2295 2.04199 -21.752 5.33984 -31.9609 10.5225c-10.0518 5.10449 -19.2393 11.7793 -27.249 19.7891s-14.6846 17.1973 -19.7891 27.249
c-5.18262 10.209 -8.48047 20.7314 -10.5225 31.9609c-1.96289 11.0723 -2.66992 22.3799 -2.98438 33.6094c-0.078125 5.18359 -0.157227 10.2871 -0.235352 15.4707v18.375v191.607v18.375c0 5.18359 0.078125 10.2871 0.235352 15.4707
c0.314453 11.2295 0.942383 22.5371 2.98438 33.6094c2.04199 11.2295 5.33984 21.752 10.5225 31.9609c5.10449 10.0518 11.7793 19.2393 19.7891 27.249c8.00977 7.93164 17.1973 14.6846 27.249 19.7891c10.209 5.18262 20.7314 8.48047 31.9609 10.5225
c11.0723 1.96289 22.3799 2.66992 33.6094 2.98438c5.18359 0.157227 10.2871 0.235352 15.4707 0.235352h18.375h191.607h18.375c5.18359 0 10.2871 -0.078125 15.4707 -0.235352c11.2295 -0.314453 22.5371 -0.942383 33.6094 -2.98438
c11.2295 -2.04199 21.752 -5.33984 31.9609 -10.5225c10.0518 -5.10449 19.2393 -11.7793 27.249 -19.7891s14.6846 -17.1973 19.7891 -27.249c5.18262 -10.209 8.48047 -20.7314 10.5225 -31.9609c1.96289 -11.0723 2.66992 -22.3799 2.98438 -33.6094
c0.157227 -5.18359 0.235352 -10.2871 0.235352 -15.4707v-18.375v-191.607zM95.7256 311.362c-12.7217 -9.34473 -13.5859 -18.6895 -13.5859 -27.249v-201.502c0 -8.55957 5.73242 -9.65918 13.5859 -3.84766c42.5615 30.9395 94.7041 29.29 125.173 5.81055
c29.7617 -21.9873 29.7617 -51.1211 29.7617 -42.4834v207.627c0 37.458 -5.18262 41.2266 -13.585 54.1055c-33.2959 38.9502 -98.7881 38.4785 -141.35 7.53906zM429.86 82.6895c0 46.1748 0 155.249 0.078125 201.58c0 8.55957 -0.863281 17.9043 -13.585 27.249
c-42.6406 30.8613 -108.133 31.4111 -141.429 -7.61719c-8.40234 -12.8779 -13.585 -16.6475 -13.585 -54.1055v-207.627c0 -8.6377 0 20.4961 29.7617 42.4834c30.4688 23.4805 82.6113 25.1289 125.173 -5.81055c7.85352 -5.81152 13.5859 -4.71191 13.5859 3.84766z" />
    <glyph glyph-name="arbonne" unicode="&#xf107;" 
d="M462.842 204.172v0c32.7461 -23.166 49.2363 -56.8545 49.1582 -100.28c-0.078125 -34.7871 -10.7578 -64.2354 -30.8613 -85.2803c-20.1816 -21.2031 -48.5303 -32.3535 -81.9043 -32.3535c-50.415 0.235352 -106.798 8.08789 -143.156 96.4316
c-36.4365 -88.4219 -92.9766 -96.1963 -143.47 -96.3535c-33.2959 0 -61.5654 11.2295 -81.7471 32.3535c-20.1035 21.0459 -30.7832 50.4932 -30.8613 85.2812c-0.078125 43.2686 16.4121 77.0352 49.3936 100.279c32.4326 22.9307 79.7842 34.6309 140.879 34.7881
c8.87402 0 15.9414 -0.707031 27.249 -1.96289c-1.49219 96.2744 -41.6982 109.389 -81.04 109.389h-0.47168c-18.8467 0 -40.7559 -5.73242 -52.6133 -11.4648c-1.64941 -0.707031 -3.92676 -1.96387 -5.88965 -3.0625
c-2.04199 -1.09961 -3.53418 -1.88477 -4.47656 -2.35645l-4.31836 -1.96289l-3.84766 2.66992c-11.2295 7.85254 -20.1035 18.6895 -25.6006 31.2539l-3.0625 6.98926l6.75391 3.5332c6.28125 3.37695 12.7998 6.36133 19.3955 9.03125
c27.0137 10.8369 55.5195 16.4902 84.6533 16.6475c52.3779 0 90.7773 -25.0498 108.368 -70.4395c0.313477 -0.706055 0.549805 -1.33496 0.785156 -2.04102c0.235352 0.706055 0.549805 1.33496 0.785156 2.04102c17.5117 45.3896 55.9902 70.3613 108.289 70.3613
c29.2129 -0.157227 57.7178 -5.73242 84.7314 -16.6484c6.59668 -2.66992 13.1143 -5.73242 19.3965 -9.03027l6.51758 -3.45508l-2.74805 -6.91016c-1.64941 -4.24121 -8.55957 -19.1611 -25.6787 -31.4111l-3.84766 -2.74902l-4.31934 1.96289
c-1.02051 0.549805 -2.5127 1.33496 -4.39746 2.35645c-2.04199 1.09961 -4.31934 2.35547 -5.81055 3.0625c-12.0146 5.73242 -33.9238 11.5439 -52.7705 11.5439h-0.47168c-39.3418 0 -79.5488 -13.1143 -81.04 -109.39c10.915 1.25684 18.375 1.96387 27.1699 1.96387
c61.0947 -0.157227 108.447 -11.8584 140.879 -34.7881zM459.622 101.458v0c0.078125 22.3799 -6.91016 40.6768 -20.6523 54.6553c-22.8516 22.8516 -62.9014 34.0811 -122.582 34.1592c-3.69043 0 -10.0518 -0.47168 -18.0615 -0.942383l-4.47559 -0.314453
l-0.0791016 -10.8369c-0.157227 -42.876 7.14648 -77.0352 21.5957 -101.614c16.6475 -28.4268 42.7969 -42.7979 77.6631 -42.7979c38.6357 0 66.5918 28.4277 66.5918 67.6914zM218.307 178.258v0l-0.078125 10.7578l-4.31934 0.236328
c-8.08789 0.548828 -14.5273 0.942383 -18.2969 0.942383c-59.6807 -0.157227 -99.8086 -11.3086 -122.503 -34.1602c-13.7422 -13.8203 -20.7314 -32.1963 -20.6533 -54.498c0 -39.2637 28.0352 -67.7695 66.5918 -67.7695c34.8662 0 61.0156 14.3711 77.6641 42.7979
c14.4492 24.6572 21.6738 58.8955 21.5947 101.693z" />
    <glyph glyph-name="arena" unicode="&#xf108;" 
d="M0.157227 119.44c-0.157227 2.43457 1.57031 3.92676 3.45508 5.33984c8.40234 6.51758 16.8047 13.0361 25.207 19.4746c18.1406 14.4492 37.1436 27.8779 54.8906 42.7979c2.90625 3.21973 2.74902 7.45996 -0.548828 10.3652
c-25.8359 20.8887 -52.3779 40.7559 -78.4492 61.1738c-0.314453 0.235352 -0.549805 0.392578 -0.864258 0.62793c-3.6123 2.98438 -4.71191 6.04688 -3.21973 8.55957c1.25684 2.19824 4.86914 2.82715 8.79492 1.17773
c29.5264 -12.3291 59.0527 -24.4219 88.7363 -36.3584c2.12012 -0.863281 4.31934 -1.57031 6.59668 -1.80566c3.21973 -0.314453 5.49707 1.17773 6.43945 4.24023c0.863281 2.82715 1.49219 5.81055 1.96289 8.7168c1.57031 9.97266 2.74902 20.0244 4.31934 29.9971
c1.72754 17.1191 4.00488 34.0811 6.83203 51.043c0.62793 4.71191 0.62793 9.58008 2.04102 14.1348c0.785156 2.74902 2.66992 3.92676 5.6543 3.6123c2.74805 -0.313477 3.92676 -1.64844 4.24023 -4.39746c3.69141 -26.3066 7.93164 -52.5352 11.2295 -78.8418
c0.864258 -7.22461 1.57031 -14.4492 2.43457 -21.5947c0.62793 -4.94727 4.71191 -8.08887 9.50195 -6.6748c5.26172 1.49219 10.2871 3.69043 15.3916 5.73242c25.5996 10.6016 51.5928 20.2598 76.5645 32.1963c3.0625 1.41309 6.125 1.33496 9.26562 0
c24.9717 -11.1514 50.3369 -21.5166 75.7012 -31.8818c4.24023 -1.72754 8.48047 -3.53418 12.7217 -5.26172c7.14551 -2.82715 11.3857 -0.707031 12.6426 6.83203c2.5918 15.8623 4.16211 31.9609 6.43945 47.9014c1.17773 7.85352 2.59082 15.7061 3.69043 23.6367
c1.09961 8.08887 2.04199 16.1768 3.0625 24.2656c0.235352 4.24023 1.02148 8.7168 6.43945 8.40234c3.14062 -0.157227 4.08301 -1.80664 4.47559 -4.79004c2.35645 -19.5537 5.18359 -39.0283 8.32422 -58.4248c2.12012 -14.2139 3.84766 -28.4268 5.73242 -42.6406
c0.628906 -4.71191 4.86914 -7.38184 9.97363 -5.73242c17.8252 6.2041 35.0234 14.1348 52.5342 21.2021c12.8789 5.33984 25.7578 10.6807 38.6357 15.8633c2.04199 0.863281 4.47656 1.49219 6.6748 1.33496c3.92676 -0.236328 5.73242 -4.00488 3.53418 -7.38184
c-0.864258 -1.33496 -2.12012 -2.43457 -3.37695 -3.37695c-25.9141 -20.2598 -52.4561 -39.8916 -78.2129 -60.3877c-4.47656 -4.31836 -5.41895 -7.69531 -0.314453 -12.0146c26.3066 -21.5947 53.791 -41.6982 80.334 -62.9004
c1.72754 -1.88477 3.14062 -3.84766 1.80566 -6.6748c-1.33496 -2.90527 -3.76953 -2.82715 -6.36035 -2.5918c-0.864258 0.0791016 -1.80664 0.236328 -2.5918 0.549805c-13.8994 5.73242 -27.7197 11.6221 -41.6982 17.3545
c-16.9619 6.98926 -34.002 13.8994 -51.043 20.6533c-5.33984 2.12012 -9.50195 -1.09961 -10.208 -6.83203c-1.88477 -15.0771 -4.63379 -30.0762 -6.51855 -45.1533c-1.88379 -18.5332 -4.47559 -36.9082 -7.38086 -55.2832
c-0.392578 -2.43457 -1.64941 -3.84863 -4.08398 -4.24121c-2.59082 -0.470703 -4.47559 0.628906 -5.65332 2.90625c-0.393555 0.785156 -0.707031 1.64844 -0.864258 2.5127c-0.942383 7.38086 -1.72754 14.7627 -2.66992 22.1445
c-1.96289 14.7627 -4.24023 29.4482 -6.28223 44.2109c-1.09961 8.08887 -2.04199 16.1768 -3.14062 24.2646c-0.47168 3.53418 -0.942383 7.06836 -1.88477 10.4443c-1.33496 5.02637 -5.26172 6.98926 -10.209 5.02637
c-30.5469 -11.9365 -60.7021 -24.8154 -90.7783 -37.8506c-2.43359 -0.942383 -5.81055 -1.02051 -8.24512 -0.078125c-8.87305 3.45508 -17.4326 7.61719 -26.2285 11.3076c-20.3379 8.55957 -40.7559 16.9619 -61.1729 25.3643
c-1.64844 0.707031 -3.37598 1.02051 -5.10449 1.49219c-4.31836 1.17773 -8.71582 -1.49219 -9.34473 -5.96777c-1.02051 -6.98926 -1.64844 -14.0566 -2.5127 -21.124c-2.27734 -17.7471 -4.71094 -35.4951 -7.22461 -53.1631
c-1.25586 -8.95215 -2.74805 -17.8262 -4.08301 -26.7783c-0.392578 -2.5918 -1.33496 -4.31934 -4.16211 -4.71191c-4.79004 -0.706055 -6.2041 4.00488 -6.75293 7.77441c-0.786133 5.41895 -1.57129 10.8369 -2.19922 16.334
c-1.72754 16.9619 -4.00488 33.7666 -6.59668 50.5713c-1.25586 9.10938 -2.43359 18.2969 -3.45508 27.4062c-0.470703 4.31934 -1.57031 7.85254 -6.0459 9.7373c-3.37695 1.41406 -5.96875 -0.392578 -8.55957 -1.41309
c-29.6055 -11.9365 -59.0527 -24.4219 -88.5791 -36.5156c-1.57129 -0.62793 -3.45605 -0.942383 -5.18359 -0.863281c-2.9834 0 -4.55469 1.88477 -4.47559 5.02539zM334.92 192.235c0.549805 3.45508 -1.96289 5.10449 -4.16211 6.83203
c-23.6367 18.376 -47.3516 36.6729 -71.0674 54.9697c-3.45508 2.66992 -3.84766 2.74805 -7.38086 0.078125c-24.2656 -18.6895 -48.7656 -37.0645 -72.6387 -56.2256c-4.16211 -3.76953 -4.16211 -7.45996 -0.157227 -11.3076
c23.7939 -19.2393 48.4521 -37.5371 72.5596 -56.4619c4.16211 -3.21973 4.24121 -3.0625 8.16699 -0.078125c23.7939 18.4541 47.5098 36.9863 71.3818 55.3613c2.19922 1.88477 3.45508 3.92676 3.29785 6.83203z" />
    <glyph glyph-name="arrivala" unicode="&#xf300;" 
d="M510.375 103.01c-2.03223 -32.9141 -6.50195 -68.2666 -18.6924 -102.4c-5.28223 -14.6289 -12.5967 -26.8193 -30.8828 -20.3174c-18.2852 6.0957 -16.6602 19.9111 -11.3779 34.9463c45.918 130.438 -12.5967 263.314 -116.622 323.454
c-94.6787 54.4502 -190.171 52.8252 -284.444 -2.43848c-2.84473 -1.625 -5.68848 -4.06348 -8.5332 -5.68848c-12.1904 -7.31445 -25.5996 -9.34668 -34.1338 3.65723c-8.93945 13.4092 -3.65625 26.0059 9.75293 34.5391c61.3584 39.0098 126.781 57.2959 201.143 52.0127
c84.5205 -6.09473 153.193 -40.2285 209.677 -101.181c56.0762 -60.1396 81.6758 -132.47 84.1143 -216.584zM334.02 114.388c0 -43.4795 0.40625 -85.334 -0.407227 -127.188c0 -13.8164 -8.12695 -22.7559 -22.3486 -24.3809
c-14.6289 -1.21973 -25.1934 4.06348 -28.8506 19.0977c-0.813477 3.25098 -1.21973 6.0957 -2.03223 9.75293c-99.5557 -63.3906 -185.701 -13.8164 -218.209 45.1045c-36.5723 66.6416 -14.2227 152.381 52.0127 191.797
c4.46973 -15.4414 8.5332 -30.8828 13.4092 -45.5107c2.43848 -7.7207 -2.84473 -10.9717 -6.50195 -15.8477c-27.2256 -33.7275 -31.2891 -70.7051 -11.7842 -105.651c17.8799 -32.1016 53.2324 -50.3867 90.21 -46.3232c39.8223 4.46973 67.8604 29.6631 79.2383 72.7363
c2.03125 7.31445 5.28223 10.1592 11.3779 12.1904c13.8154 5.28223 28.0381 9.3457 43.8857 14.2227zM191.797 334.629c146.692 -0.40625 251.937 -128.813 225.93 -271.035c-2.84375 -15.8477 -8.5332 -27.6318 -26.8184 -25.6006
c-14.6289 1.21973 -20.7236 13.8164 -17.0674 32.915c15.0352 83.708 -22.3486 162.133 -97.9297 199.518c-52.4189 26.0059 -106.464 26.8184 -160.102 2.84375c-4.46973 -2.03125 -8.5332 -4.46973 -12.5967 -6.50098
c-18.6924 -9.75293 -32.5078 -8.12695 -38.6035 5.28223c-8.12695 18.2861 3.65723 27.2256 17.8799 34.9463c34.5391 19.0986 71.9238 29.2568 109.308 27.6318zM188.546 251.733c56.4824 0.8125 112.152 -35.7588 134.908 -87.3652
c5.68848 -13.0029 2.4375 -18.2852 -10.1592 -20.3174c-0.8125 0 -1.21875 -0.40625 -2.03125 -0.40625c-20.3174 -8.93945 -34.1338 -10.5654 -47.9492 15.0352c-17.8799 32.1016 -50.7939 45.5107 -88.584 38.6025c-11.7842 -2.03125 -15.8477 0 -19.0986 12.5967
c-10.5654 40.2295 -11.3779 40.2295 30.8828 41.8545h2.03125zM191.391 148.114c19.9111 -1.21875 32.5078 -15.8477 31.2891 -36.5713c-1.21973 -17.8799 -17.0674 -32.5078 -34.9463 -32.1016c-19.0986 0.40625 -35.7588 18.6924 -33.7266 37.3838
c1.21875 19.5049 16.6602 32.1016 37.3838 31.2891z" />
    <glyph glyph-name="artistree" unicode="&#xf109;" 
d="M274.611 388.947c-3.76953 0 -6.75391 3.29785 -6.75391 7.30273s3.0625 7.30371 6.75391 7.30371c3.76855 0 6.75293 -3.29883 6.75293 -7.30371c0.0791016 -4.00488 -2.98438 -7.30273 -6.75293 -7.30273zM295.735 387.062
c4.39746 4.63281 8.16602 10.1299 13.5068 13.5068c2.5127 1.57031 5.73242 2.5918 8.24512 1.02051c1.80566 -1.17773 2.74805 -3.21973 3.45508 -5.26074c4.79004 -12.6436 6.2041 -26.6211 4.31934 -40.0498c-1.09961 -6.83105 -3.21973 -13.8203 -8.32422 -18.0605
c1.17773 5.81055 0.392578 12.1719 -2.35547 17.2754c-0.47168 -1.41309 -1.25684 -2.90527 -2.04199 -4.08301c-6.51758 -8.7168 -15.9414 -14.9199 -26.0713 -17.5117c-0.707031 -0.157227 -1.33496 -0.314453 -2.04199 -0.157227
c-0.785156 0.235352 -1.49219 0.864258 -2.12012 1.64941c-2.5127 3.0625 -3.45508 7.14551 -3.92676 11.2295c-1.17773 9.10938 -0.235352 18.4541 0.707031 27.6416c3.0625 1.25586 12.251 8.16699 16.6484 12.7998zM246.341 139.072
c-99.8086 90.542 -75.8574 228.123 -45.8594 266.209c-10.8369 1.80566 -21.124 8.32324 -23.9512 19.3174c-2.04199 7.61719 0 15.8623 2.27734 23.4014c-0.864258 -7.45996 4.94727 -14.3701 11.6221 -16.8838c6.6748 -2.5127 13.9775 -1.64844 20.9668 -0.863281
c13.3496 1.64844 26.542 3.14062 39.8916 4.71191c12.5645 1.41309 25.5215 2.90527 37.5361 -1.17871c12.0146 -4.08301 22.9307 -15.1553 23.5586 -28.8193l-0.707031 -0.785156c-2.5127 7.38184 -13.1143 11.7793 -20.1025 14.0566
c-6.98926 2.35547 -24.1084 3.21973 -42.9551 -2.27734c0 0 -25.3643 -7.06738 -40.9912 -32.9033c-7.30273 -12.0146 -12.0146 -25.5996 -14.5273 -37.3789c-5.33984 -25.208 -18.5332 -112.216 53.2412 -206.606zM368.688 87.0869
c9.03027 21.124 1.57031 47.2734 -12.251 65.1777c-13.8203 17.9043 -32.7461 29.6055 -50.4932 42.4834c-13.0352 9.50195 -25.9922 20.3389 -35.2588 34.0029c3.37695 -7.61719 8.16699 -14.5273 13.5068 -20.417c10.9941 -12.1719 24.0293 -20.9668 35.7305 -32.1182
c32.1172 -30.8613 50.7285 -80.8047 48.2158 -129.178c0.157227 29.6836 -16.4121 56.4609 -35.0234 76.7998s-40.1279 37.1436 -55.833 60.7021c-12.3291 18.6113 -20.3389 43.4258 -17.4336 65.8848c-1.02051 2.27734 -1.96289 4.71094 -2.66992 7.22461
c-4.79004 17.668 3.53418 40.2061 19.8672 43.8184l1.57129 1.02051c18.4541 -1.02051 39.1846 -11.7793 64.6279 -48.373c-17.7471 45.0752 -38.793 50.8076 -56.3047 54.2627l3.84863 2.66992c29.4473 3.84766 57.874 -19.4746 71.2246 -48.9229
c13.4277 -29.4473 14.6846 -63.7646 13.3496 -96.5107c-5.88965 15.3135 -18.5332 25.915 -32.1182 33.1387c4.86914 -4.63281 9.42383 -9.7373 13.585 -15.2344c19.9463 -26.6992 28.1914 -66.9834 11.8584 -96.4316zM268.957 263.539
c0.235352 -8.32422 5.33984 -16.2559 12.6426 -19.2393c-7.14551 10.9932 -7.85254 26.3848 -2.04102 38.3994c-6.43945 -3.69043 -10.7588 -11.3867 -10.6016 -19.1602zM271.156 160.589c20.2598 -18.6895 42.7969 -76.5645 41.0693 -111.431
c-1.80566 -34.7881 -21.3594 -67.8477 -49.7861 -72.7168c21.5947 38.4785 27.9561 90.3857 20.1816 139.466c-0.157227 -16.0205 -3.76953 -32.1973 -10.6797 -46.2529c-12.251 -24.9717 -34.6309 -42.3271 -57.7178 -44.918
c39.1846 25.4424 63.4502 83.4746 56.9326 135.695l0.392578 -0.549805v0.0791016zM288.196 154.307c24.6572 -30.2334 46.5674 -65.0205 56.7754 -104.363c10.209 -39.2637 7.38184 -83.71 -13.585 -113.943c2.9834 76.3291 -14.0566 155.327 -48.4521 223.804z
M232.363 333.428c10.5225 -9.1084 24.2646 -13.1133 38.0068 -12.7207c-32.2744 -44.0547 -38.2422 -123.445 -22.1445 -176.688c-7.30273 8.40234 -13.7422 18.376 -19.1602 29.1338c0.392578 -0.942383 0.863281 -1.96289 1.25586 -2.90527
c-23.6367 33.9238 -36.6719 74.9941 -37.0645 116.378c-0.236328 28.8193 5.65332 57.7959 17.1182 84.2598c-0.62793 -11.7793 4.16211 -23.7148 12.251 -32.5107c-12.3291 -24.5791 -16.9619 -52.7705 -15.3916 -80.0195
c0.864258 -17.1973 4.16211 -34.1592 9.03027 -50.7285c-2.19824 8.79492 -3.6123 17.6689 -4.16113 26.3066c-1.88477 29.6836 5.10352 73.0312 20.2598 99.4941zM251.21 413.684c-14.4492 -11.3867 -22.3018 -28.4268 -19.8672 -43.4258
c2.35547 -14.999 14.7627 -27.6416 31.8037 -32.1182c-10.6016 -5.26074 -23.0088 -1.41309 -30.3906 5.26172c-24.8936 22.2236 0.314453 61.1729 17.8262 70.125zM176.138 96.8242c-24.4219 19.9463 -33.6885 54.1846 -41.541 86.0664
c9.42285 -10.208 23.2441 -14.4492 36.5938 -16.6475c13.3496 -2.19922 27.0137 -2.66992 39.7344 -7.53906c23.4805 -8.95215 45.8604 -26.7773 48.373 -61.4873h-0.157227c-20.4951 34.3174 -38.9492 36.9873 -51.9062 34.7881
c17.5898 -6.28223 34.3955 -19.4746 40.1279 -38.5566c0.392578 -1.17871 0.62793 -2.43457 0.235352 -3.6123c-0.47168 -1.57129 -2.04199 -2.27734 -3.45508 -2.90625c-22.1455 -9.58008 -48.9229 -5.73242 -68.0049 9.89453zM225.374 88.8936
c-15.3916 6.75293 -30.3896 14.8418 -43.4258 25.835c-12.957 10.916 -24.1865 24.9717 -30.4688 41.4629l0.157227 -1.88477c0.942383 -19.2393 9.65918 -37.9287 23.4795 -50.1787c13.8213 -12.3291 32.5107 -17.9834 50.2578 -15.2344z" />
    <glyph glyph-name="artpal" unicode="&#xf10a;" 
d="M272.412 134.204l-16.334 17.9824l-4.00488 -17.9824h-63.0576l10.209 46.0166l126.351 -0.470703c6.83203 0 19.8682 -1.09961 33.2178 -9.03125c4.71094 -2.74805 19.71 -11.7002 25.835 -29.6045c3.53418 -10.2871 2.43457 -18.7686 1.17773 -28.4268
c-3.92578 -29.6055 -19.71 -49.6299 -24.1855 -55.0479c-1.80664 -2.19922 -15.8633 -18.8467 -36.9873 -28.8984c-11.7793 -5.6543 -27.5625 -10.1299 -29.3691 -10.6797h-0.157227c-6.0459 -1.72754 -12.3281 -2.5918 -18.6104 -2.5127l-51.6719 0.235352
l-18.2969 -79.7842h-63.5283l28.8975 125.88l62.3516 -0.235352l-3.76953 -18.7686l25.5996 18.7686l20.6533 1.25586c4.08301 0.314453 11.6221 1.49219 19.4746 6.36133c16.4912 10.1299 19.9463 27.7988 20.417 30.3115c1.25684 6.98828 3.0625 15.3125 -1.88477 23.0869
c-3.5332 5.49707 -8.95215 8.40234 -13.4277 9.81543c-3.21973 1.09961 -6.6748 1.57129 -10.0518 1.57129zM125.016 75.6221v44.3682h131.299l3.5332 14.6846l36.2803 -38.1641l-52.1426 -35.3379l2.35547 14.4492h-121.325zM378.817 202.522h-65.7275l-5.6543 49.9434
h-89.9922l-27.9561 -49.9434h-64.4717l147.239 245.478h72.2461zM303.431 296.913l-10.4443 86.9297l-49.6289 -86.9297h60.0732z" />
    <glyph glyph-name="audiocom" unicode="&#xf10b;" 
d="M483.809 312.147c19.082 -34.3955 28.1914 -73.4238 28.1914 -112.766v-258.277h-104.991v47.7441c-85.9883 -59.6807 -198.361 -63.7637 -285.213 -10.3652c-79.3125 48.7656 -130.434 141.192 -120.539 238.567c12.0146 119.833 109.703 181.163 123.131 189.251
c8.6377 5.26172 109.938 64.1572 225.531 20.7314c17.9043 -6.6748 85.8311 -34.5518 129.649 -107.583c1.49219 -2.43457 2.90527 -4.86816 4.24023 -7.30273zM259.22 42.6406c82.2969 0 149.124 66.748 149.124 149.124c0 82.375 -66.749 149.124 -149.124 149.124
c-82.376 0 -149.124 -66.749 -149.124 -149.124c0 -82.376 66.748 -149.124 149.124 -149.124z" />
    <glyph glyph-name="audiotool" unicode="&#xf10c;" 
d="M385.257 -29.0557c-1.09961 -0.548828 -2.04199 -0.941406 -2.98438 -1.49121c-26.4639 -15.0781 -54.7334 -24.9717 -84.8096 -29.998c-18.2969 -3.0625 -36.8301 -4.00488 -55.3623 -2.98438c-30.8613 1.72852 -60.5449 8.55957 -88.8145 21.0459
c-22.7734 10.0518 -43.7402 23.0088 -62.665 39.1855c-25.2861 21.5166 -45.8604 46.8809 -61.252 76.25c-12.4072 23.5586 -20.8877 48.4512 -25.4424 74.6797c-3.37695 19.5537 -4.63379 39.1855 -3.45605 58.9746c2.43457 41.6982 14.2139 80.6475 35.6523 116.534
c13.1133 21.9883 29.0547 41.4629 47.9805 58.6602c24.9717 22.6162 53.2412 39.6572 84.9668 51.1221c17.5898 6.36035 35.6514 10.8369 54.2617 13.0352c20.1035 2.43457 40.2852 2.66992 60.4668 0.47168c32.5889 -3.53418 63.293 -12.7998 92.1133 -28.1914
c43.0322 -22.9307 76.8779 -55.5977 101.536 -97.6885c14.9199 -25.4434 24.9717 -52.7705 30.3115 -81.7471c2.74805 -15.1562 4.24023 -30.4688 4.24023 -45.8604c-0.078125 -62.9004 0.078125 -125.723 -0.078125 -188.623
c-0.0791016 -27.3281 -12.5645 -47.8232 -36.4375 -60.7021c-23.2441 -12.4863 -52.6914 -9.34473 -73.1875 7.45996c-6.2041 5.10449 -11.4648 10.9941 -15.5488 17.8262c-0.392578 0.706055 -0.942383 1.25586 -1.49121 2.04102zM255.843 70.9893
c65.8066 -0.157227 121.404 52.9277 121.325 121.325c-0.078125 66.1201 -52.8486 121.011 -121.246 120.854c-68.9473 -0.078125 -119.677 -55.2051 -121.012 -118.263c-1.49219 -69.0254 54.1055 -123.995 120.933 -123.916z" />
    <glyph glyph-name="aweber" unicode="&#xf10d;" 
d="M293.362 445.232c148.064 0 224.173 -73.3408 225.557 -254.616v0c0 -182.659 -80.2598 -253.232 -258.768 -253.232v0v0c-65.0381 0 -74.7246 12.4541 -78.876 29.0596c-23.5244 81.6436 -30.4434 168.821 -16.6055 238.011
c13.8379 78.876 45.665 157.751 98.249 225.557c6.91895 9.68652 19.373 15.2217 30.4434 15.2217zM287.827 -39.0918c11.0703 6.91895 15.2217 19.373 9.68652 27.6758v1.38379v0c-29.0596 59.5029 -42.8975 127.308 -29.0596 196.497
c12.4541 70.5732 47.0488 130.076 96.8652 174.356v0v0c8.30273 8.30273 9.68652 22.1406 1.38379 30.4434c-6.91895 9.68652 -20.7568 9.68652 -30.4434 1.38379v0v0c-58.1191 -52.584 -95.4814 -121.772 -110.703 -199.265s-2.76758 -154.983 33.2109 -224.173v0v0
c4.15137 -9.68652 19.373 -13.8379 29.0596 -8.30273zM423.438 286.098c5.53516 4.15137 6.91895 13.8379 1.38379 19.373c-4.15137 5.53516 -15.2217 5.53516 -20.7568 1.38379l-1.38379 -1.38379v0c-40.1289 -33.2109 -70.5723 -77.4922 -80.2588 -128.692
s0 -102.4 26.292 -145.297v0v0c4.15137 -6.91895 13.8379 -8.30273 20.7568 -5.53516s9.68652 12.4541 5.53516 17.9893v1.38379v0c-23.5244 37.3613 -33.2109 84.4102 -23.5244 128.691s35.9775 83.0273 71.9561 112.087v0zM78.876 -0.345703
c1.38379 -8.30273 -8.30273 -15.2217 -16.6055 -8.30273c-38.7461 34.5947 -62.2705 80.2588 -62.2705 202.032v0c0 156.367 60.8867 222.789 145.297 244.93c8.30273 2.76758 15.2217 -6.91895 9.68652 -13.8379c-37.3613 -62.2705 -65.0371 -131.459 -77.4912 -204.8
s-11.0703 -148.065 1.38379 -220.021z" />
    <glyph glyph-name="backloggd" unicode="&#xf2eb;" 
d="M88.1084 447.922h3.29785c53.791 0 107.504 0.15625 161.296 -0.0791016c28.8975 -0.157227 57.3252 -3.76953 84.7314 -13.585c18.375 -6.59668 35.0225 -16.0195 48.6865 -30.1543c15.3135 -15.8633 23.7158 -35.0234 26.6992 -56.7764
c2.27734 -16.8828 1.80664 -33.6875 -2.66992 -50.1006c-7.69531 -28.1123 -25.2852 -47.666 -51.9854 -59.209c-1.25586 -0.549805 -2.5127 -1.09961 -3.84766 -1.72754c5.81152 -2.19922 11.4648 -4.00586 16.8047 -6.51855
c29.4482 -13.585 45.9395 -36.9072 50.8076 -68.6328c3.1416 -20.417 1.41406 -40.7559 -4.16211 -60.623c-8.79492 -31.333 -28.584 -53.3203 -57.7959 -67.2197c-16.5693 -7.93164 -34.1592 -12.4863 -52.2998 -15.1562
c-16.9619 -2.5127 -34.002 -3.14062 -51.2002 -3.14062c-54.498 0.078125 -108.996 0 -163.572 0h-4.79004v432.923zM260.162 95.0186c8.24512 0 16.4902 0.707031 24.4219 3.0625c18.376 5.41797 30.3115 16.9619 33.4531 36.2793
c1.72754 10.5234 0.942383 20.9668 -1.80664 31.2539c-4.55469 16.8838 -15.4697 27.25 -32.3535 31.1758c-6.125 1.41406 -12.4854 2.12012 -18.7676 2.19922l-72.6387 -0.0791016v-103.656zM251.288 267.937c10.9941 0.15625 21.9883 1.57031 32.3535 5.73242
c12.6426 5.02539 20.7314 14.1348 24.1865 27.3271c1.96289 7.53906 2.12012 15.2344 1.49219 23.0088c-2.04199 24.0293 -14.1348 34.3955 -30.8613 39.5781c-10.915 3.37695 -22.0664 4.31836 -33.374 4.39746l-52.5352 -0.157227v-99.8086zM424.049 -29.6045v-29.998
c-0.157227 -2.82715 -1.33496 -4.08301 -4.16211 -4.31934h-326.988c-3.69141 0.0791016 -4.94727 1.33496 -4.94727 5.10449v29.998c0.157227 2.82715 1.33496 4.08301 4.16211 4.31836h326.988c3.69141 -0.078125 4.94727 -1.33496 4.94727 -5.10352z" />
    <glyph glyph-name="beatport" unicode="&#xf10e;" 
d="M461.664 84.8096c0 -82.2969 -65.6494 -148.81 -148.731 -148.81s-147.946 64.8643 -147.946 148.81c0 39.5 14.9209 74.3662 38.6357 100.594l-100.516 -100.594l-52.7705 52.7705l113.395 112.216c15.3906 15.3916 23.2441 35.3379 23.2441 57.3252v140.879h74.3652
v-140.879c0 -43.2686 -15.3916 -79.7832 -45.3105 -109.703l-3.29785 -3.29785c26.1494 24.1084 61.958 38.6357 100.122 38.6357c84.418 -0.078125 148.811 -66.9844 148.811 -147.946zM394.365 84.7314c0 44.0537 -36.5938 79.7842 -81.4326 79.7842
c-44.8398 0 -80.5693 -37.3799 -80.5693 -79.7842c0 -42.4053 35.7295 -80.6484 80.5693 -80.6484c44.8389 0.0791016 81.4326 37.8506 81.4326 80.6484z" />
    <glyph glyph-name="beehiiv" unicode="&#xf10f;" 
d="M445.427 206.234h-378.416c-9.63477 0 -17.5186 7.88379 -17.5186 17.5195v26.7168c0 30.2207 24.5264 54.7471 54.7471 54.7471h303.521c30.2207 0 54.7471 -24.5264 54.7471 -54.7471v-26.7168c0.438477 -9.63574 -7.44531 -17.5195 -17.0811 -17.5195z
M365.714 334.125h-218.99c-9.63574 0 -17.957 7.88379 -17.957 17.957v0c0 44.6738 36.3525 81.0264 81.0264 81.0264h92.8516c44.6748 0 81.0273 -36.3525 81.0273 -81.0264v0c0 -10.0732 -7.88379 -17.957 -17.958 -17.957v0zM462.946 177.327v0
c27.1543 0 49.0537 -21.8984 49.0537 -49.0537c0 -27.1543 -22.3369 -49.4912 -49.4922 -49.4912h-146.724c-5.25586 28.0303 -30.2207 49.4912 -60.0029 49.4912c-29.7832 0 -54.3096 -21.4609 -59.5654 -49.4912h-146.724c-27.1553 0 -49.4922 22.3369 -49.4922 49.4912
c0 27.1553 22.3369 49.0537 49.4922 49.0537h413.454zM444.989 49.875v0c10.0732 0 17.957 -8.32129 17.5186 -17.957v-31.5352c0 -27.1543 -22.3369 -49.4912 -49.4912 -49.4912h-96.3564v98.9834h128.329zM67.0107 49.875c0 0 128.329 0 127.891 0v-98.9834h-96.3555
c-27.1553 0 -49.4922 22.3369 -49.4922 49.4912v31.5352c0 10.0732 8.32227 17.957 17.957 17.957z" />
    <glyph glyph-name="belletristica" unicode="&#xf33f;" 
d="M374.027 158.154c8.40234 7.53906 17.668 14.0566 27.5625 19.4756h1.88477v-1.88477c-14.6846 -12.8008 -25.0498 -29.8408 -29.5264 -48.8447c-3.69043 -41.4619 -17.5117 -17.5117 -17.5117 -17.5117c-41.3057 86.6943 -134.518 116.143 -193.492 147.476
c59.917 -38.6357 161.296 -82.9258 199.774 -205.664c8.16699 -23.6367 13.9785 -47.9805 17.4336 -72.7949l-0.62793 0.62793c-2.82715 2.43457 -7.06836 2.19824 -9.50195 -0.62793c-2.74902 -4.55469 6.43848 -11.0732 12.0146 -10.1309
c0.863281 -10.208 2.66992 -20.2598 3.6123 -32.2744l-31.333 35.9658c5.41895 18.1396 4.79004 37.5361 -1.80566 55.2832c-4.79004 14.8418 -11.8584 28.8193 -21.124 41.4629l-0.942383 0.942383c-6.28223 1.88477 -12.7998 2.82715 -19.3965 2.82715
c-3.6123 -0.942383 -7.22461 -0.942383 -10.8369 -1.88477c-13.7422 -4.00488 -26.1494 -11.7012 -35.9658 -22.0664c-0.078125 -0.157227 -0.157227 -0.314453 -0.313477 -0.392578c-0.707031 -0.549805 -1.80664 -0.314453 -2.35645 0.392578
c-0.706055 0.706055 -1.09961 1.72754 -0.942383 2.74805c2.12012 6.28223 5.18359 12.1719 9.18848 17.5117c-23.0879 -1.09961 -46.0957 2.98438 -67.2988 12.0146c20.1035 5.6543 39.1074 14.6846 56.1475 26.6992c-70.9893 -13.6631 -109.703 12.0938 -131.848 38.9502
c-2.98438 3.84766 -5.81152 7.85254 -8.32422 12.0146c-0.863281 2.5918 -2.66992 4.47559 -3.6123 7.22461c-12.0146 21.5166 -19.1602 45.3887 -21.124 69.9678c-1.72754 29.6055 4.63379 59.21 18.376 85.5166c15.5479 30.3115 38.0068 56.6182 65.4922 76.7217
l0.942383 -0.942383c-11.1514 -8.48145 -17.3555 -21.9873 -16.5693 -35.9658c5.5752 -39.8916 87.5576 -35.0234 148.417 -77.5068c10.0508 -7.30273 19.3174 -15.627 27.6416 -24.8926c22.3799 -28.8203 35.0234 -64 35.9658 -100.438zM381.723 431.038
c16.4912 -6.98926 29.5264 -20.2598 36.2803 -36.751c2.04102 -14.6064 -1.57129 -29.4482 -10.1309 -41.4629c-14.6055 -0.62793 -29.2119 0.549805 -43.5039 3.6123c-11.1514 1.96387 13.8994 -10.1299 35.9658 -15.627
c-10.209 -12.957 -22.6943 -23.8721 -36.8301 -32.3535c-10.1299 6.43945 -20.9668 11.7012 -32.3525 15.5488c-55.3623 18.4541 -99.5732 13.8213 -125.33 19.3965c6.20312 3.45508 12.6426 6.51758 19.2393 9.2666c11.0723 4.71094 22.458 8.40234 34.1592 11.0723
c12.0146 2.59082 23.9512 5.33984 35.9658 7.22461c12.0146 1.88379 23.9502 3.69043 35.9658 4.63281c-12.0156 0 -24.9727 0.078125 -36.9082 -0.864258c-11.9365 -1.02051 -24.8154 -2.74805 -36.8301 -4.63281c-12.1709 -1.88477 -24.1865 -4.63281 -35.9648 -8.32422
c-10.7588 -3.0625 -21.2812 -7.06738 -31.333 -12.0146c-5.49707 4.24121 -8.87305 10.6016 -9.2666 17.5117c-3.6123 30.5479 25.8359 53.6348 55.2051 66.5127l2.74902 0.942383c26.3848 10.2871 54.6553 14.6846 82.9248 12.957
c-1.09961 -4.79004 -2.5918 -9.42285 -4.47559 -13.8994c21.0449 7.38184 44.1318 6.36133 64.4707 -2.74805z" />
    <glyph glyph-name="bitview" unicode="&#xf301;" 
d="M228.437 144.647c25.7578 -54.498 9.81641 -128.313 -36.9072 -160.981c-3.53418 -2.43457 -7.06836 -4.55469 -10.6016 -6.36035c-14.0566 -7.30273 -29.8408 -10.6797 -45.7031 -10.6797h-135.225v450.67h120.933c11.3867 0 22.8516 -1.41406 33.7666 -4.63379
c12.6436 -3.76855 27.0918 -10.3652 40.1279 -22.3018c46.0957 -42.0908 30.8613 -109.781 29.6045 -115.121c-7.06738 -29.1338 -24.1074 -49.708 -27.6416 -53.8701c-7.77441 -9.1875 -15.627 -15.7842 -21.5166 -20.1816
c16.4912 -9.7373 39.4209 -27.3271 53.1631 -56.54zM74.9941 356.044v-122.503h26.8564c13.585 0 26.6992 5.5752 35.5723 15.8623l0.236328 0.236328c22.1445 26.1494 23.4014 72.166 0.706055 94.9395c-0.078125 0.078125 -0.15625 0.157227 -0.235352 0.235352
c-7.45996 7.38184 -17.7471 11.2295 -28.2695 11.2295h-34.8662zM136.245 39.5781c24.6582 18.6104 30.2334 58.8955 18.9258 88.8926c-0.0791016 0.157227 -0.157227 0.393555 -0.236328 0.628906c-9.6582 24.6572 -33.9238 40.4414 -60.3877 40.4414h-19.5527v-138.052
h36.2012c8.87305 0 17.7471 2.5918 24.8926 7.93164c0 0.078125 0.0791016 0.078125 0.157227 0.157227zM353.767 416.511l48.4521 -284.113l42.4043 284.113h67.377l-74.9941 -449.1h-68.4756l-82.7686 449.1h68.0049z" />
    <glyph glyph-name="bluesky" unicode="&#xf110;" 
d="M493.056 202.752c-18.4316 -46.0801 -66.5596 -63.4883 -112.64 -61.9521c-5.63184 0 -10.752 0.511719 -15.8721 1.02441v0v-0.512695v-0.511719c15.8721 -3.07227 31.2324 -8.19141 46.0801 -14.8477c18.4316 -8.7041 35.3281 -22.5283 42.4961 -42.4961
c4.60742 -16.3838 2.55957 -32.2559 -5.63184 -47.1045c-3.07227 -5.11914 -6.14453 -10.2393 -9.72852 -14.8477c-16.8955 -21.5039 -43.5195 -45.5684 -70.6562 -52.7363c-20.9912 -5.63184 -40.4473 -1.02344 -57.3438 14.3359
c-27.6475 24.5762 -40.96 61.4404 -52.7354 95.7441c0 0.512695 -0.512695 1.02441 -1.53613 0.512695v0c-0.512695 0 -1.02441 -0.512695 -1.02441 -1.02441c-6.14355 -21.5039 -14.3359 -41.4717 -24.5762 -59.9043c-10.752 -19.4561 -28.1602 -40.96 -49.1514 -48.6396
c-15.3604 -5.63184 -31.2324 -4.6084 -47.6162 3.07227c-20.9922 9.72754 -39.9365 26.624 -55.2959 44.0322c-8.7041 10.2393 -15.3604 21.5039 -19.4561 32.7676c-5.63184 17.9199 -3.07227 33.792 7.67969 49.1523c3.07227 4.60742 6.65625 8.19141 10.2402 11.2637
c19.4561 16.3838 43.5195 25.0879 68.0957 30.208c1.02441 0 2.04785 0.511719 3.58398 1.53613c1.53613 1.02344 1.02441 1.02344 -0.511719 0.511719s-3.07227 -0.511719 -5.12012 -1.02441c-32.7676 -3.07129 -69.6318 2.56055 -95.2324 23.5527
c-20.9912 16.3838 -32.7676 38.9121 -35.8398 66.0479c-4.0957 36.8643 -7.67969 74.2402 -10.2393 111.104c-0.512695 13.8242 -1.53613 27.6484 0 40.4482c2.55957 16.3838 11.7754 31.7441 29.6953 34.8164c12.7998 2.04785 25.6006 -1.02441 37.8887 -5.63184
c17.4072 -6.65625 33.792 -16.3848 48.6396 -28.6729c20.4795 -16.8955 40.4482 -36.8633 59.9043 -59.9033c22.5273 -26.624 42.4961 -54.7842 60.9277 -84.4805c6.14355 -9.72754 11.2637 -19.9678 16.8955 -30.7197c0 -0.511719 0.512695 -0.511719 1.02441 -0.511719
c0 0 0.511719 0 0.511719 0.511719c19.4561 36.3516 42.4961 71.168 69.6318 104.96c19.4561 24.0645 39.4248 45.0557 59.3926 62.4639c20.4795 17.9199 44.5439 33.2803 70.1436 40.4482c6.14453 1.53613 12.2881 2.55957 18.9443 2.04785
c39.4238 -1.02441 38.4004 -44.5439 36.3516 -72.1924c-2.55957 -32.7676 -5.11914 -63.4873 -7.67969 -92.6719c-2.55957 -16.8955 -3.58398 -34.3037 -10.2402 -50.1758z" />
    <glyph glyph-name="blueskyold" unicode="&#xf2f2;" 
d="M411.406 448c55.5186 0 100.594 -45.0752 100.516 -100.594v-310.812c0 -55.5186 -44.9971 -100.594 -100.595 -100.594h-310.733c-55.5186 0 -100.594 45.0752 -100.594 100.673v310.733c0 55.5186 45.0752 100.594 100.594 100.594h310.812zM174.96 164.279
l43.7393 -14.8408l-43.7393 40.5195l-43.7402 -20.2598l-35.1807 26.6992l-50.1006 -26.6992l42.6406 4.24023l37.3008 -32.0391zM224.039 272.02l52.2207 -43.7402l51.2002 43.7402l92.7412 -43.7402l-93.8408 73.5811l-50.1006 -30.9404l-46.959 30.9404
l-79.9414 -42.6406zM414.939 130.67v-0.078125h26.7002l-26.7002 16.5693l-19.2393 -16.5693l-23.4795 16.5693l-45.8604 -33.0605l45.8604 16.5693l23.4795 -16.5693z" />
    <glyph glyph-name="bollyx" unicode="&#xf340;" 
d="M444.702 193.257c42.7969 -5.18359 67.2979 -23.3232 67.2979 -76.3291c0 -70.2041 -41.4629 -84.7314 -97.5312 -84.7314h-311.99v189.095l91.1709 -0.157227h171.582c18.0615 0 39.4209 9.89453 39.4209 28.0342c0 18.4541 -12.6426 27.9561 -30.7822 27.9561
l-268.879 0.078125s-104.991 -2.90527 -104.991 74.5234h384.471c78.0566 0 116.064 -21.2031 116.064 -83.8682c0 -59.6025 -28.5059 -65.335 -55.833 -73.2656v-1.33496zM376.147 107.033c21.2021 0 37.3008 9.1875 37.3789 27.7197
c0 21.5957 -24.8936 27.5635 -46.0957 27.5635h-173.781v-55.2832h182.498z" />
    <glyph glyph-name="boltplustv" unicode="&#xf111;" 
d="M129.728 283.249l143.077 -118.263l-143.077 -117.87v236.133zM340.024 313.482l41.4629 -226.866l-157.291 131.22v0l-94.4688 79.5479l373.242 150.616zM286.704 165.065l94.7832 -79.2344l-372.457 -149.831z" />
    <glyph glyph-name="bonfire" unicode="&#xf112;" 
d="M466.297 175.273c0.157227 -9.97266 -0.392578 -30.3896 -6.2041 -54.8906c-3.45508 -14.6064 -12.0928 -43.9756 -32.0391 -76.0146c-14.8418 -24.0293 -32.9023 -44.8389 -53.5557 -61.958c-4.79004 -4.00488 -12.0146 -9.97363 -22.1445 -16.4912
c-0.0791016 0 -5.81152 -3.69043 -11.6221 -6.91016c-39.1064 -21.5166 -80.4121 -22.9307 -80.8047 -22.9307c-1.02148 -0.078125 -2.19922 -0.078125 -3.53418 -0.078125c-13.8994 0 -43.0332 2.12012 -74.9941 16.9619
c-20.6523 9.58008 -34.6299 20.9668 -42.0908 27.0918c-39.4209 32.1963 -67.2197 73.3447 -82.6895 122.268c-5.5752 17.5117 -9.03027 36.123 -10.3652 55.2051c-2.27734 31.5684 2.12012 62.1943 13.0352 91.1709c1.49219 3.92578 3.1416 7.77344 4.86914 11.4648v0
l5.81055 14.0566c20.8887 -2.19922 37.6934 -5.81152 49.4727 -8.95215c2.27734 -0.549805 3.37695 -0.864258 3.53418 -0.942383c0.15625 0 0.235352 0 0.392578 -0.0791016c9.97266 -2.82715 15.3906 -5.02539 15.3906 -5.02539
c0.157227 1.57031 0.314453 3.21973 0.549805 4.79004c1.09961 8.7168 4.31934 26.9346 13.2715 50.1006c11.7002 30.4688 27.6416 54.7334 33.9238 63.7646c9.81641 14.0566 30.1543 43.1904 66.5127 67.7695c0.942383 0.62793 1.80664 1.17773 2.35645 1.57031
l1.17773 0.785156l1.17773 -0.785156c0.62793 -0.314453 1.49219 -0.864258 2.5127 -1.57031c15.7842 -10.209 26.1504 -19.9463 31.1758 -24.5791c28.3486 -26.3857 46.7236 -57.1689 47.5088 -58.5039c6.2041 -10.4434 12.0146 -22.1445 16.8057 -33.8447
c4.55371 -11.1514 12.957 -34.3955 17.8252 -65.1777c0.314453 -1.64941 0.549805 -3.1416 0.707031 -4.47656c1.80566 0.707031 3.6123 1.33496 5.41797 1.96289c11.5439 4.00488 30.3906 9.18848 54.2627 11.4658c2.82715 0.313477 5.18262 0.470703 6.59668 0.548828
l1.41309 0.0791016l0.707031 -1.25684c1.25684 -2.35547 2.5918 -4.79004 3.76953 -7.22461c4.08301 -8.32324 14.1348 -31.4111 18.2178 -65.7275c0.47168 -4.39746 1.49219 -12.6426 1.64941 -23.6367zM257.413 36.751c0 6.75293 0.0791016 16.8838 -2.19824 30.3115
c-2.98438 17.1973 -8.55957 31.2539 -14.4492 46.1738l-0.157227 0.393555c-1.49219 3.76855 -4.00488 10.0508 -6.83203 16.0977c-5.18262 10.915 -20.417 39.1064 -51.749 65.335c-5.33984 4.55469 -24.6582 19.9463 -46.0176 29.1338
c-1.88477 0.864258 -3.69043 1.57031 -3.69043 1.57031c-5.10449 2.04199 -19.0039 7.14648 -39.2637 10.916c-0.786133 0.15625 -1.41406 0.313477 -2.04199 0.392578c-0.0791016 -0.236328 -0.235352 -0.549805 -0.314453 -0.864258
c-9.34473 -27.0137 -10.915 -49.1582 -11.1504 -55.2832c-1.02148 -25.1289 2.66992 -50.0225 11.0723 -73.9727l0.157227 -0.47168c3.84766 -10.9941 15.4697 -44.3682 43.1113 -74.7578c37.5361 -41.3057 85.752 -55.834 112.294 -60.9375
c7.38184 21.8301 11.1514 44.0537 11.2295 65.9629zM256.393 158.154c12.3291 21.124 25.5996 36.5938 34.4736 46.0957c14.9199 15.4707 32.1963 28.8984 51.2783 39.9707c-1.25586 13.5068 -3.6123 27.0137 -7.06738 40.2061
c-6.51758 24.9717 -15.4697 43.6611 -20.1816 52.5352c-14.1348 26.542 -33.8447 50.0225 -58.5811 69.8115c-5.33984 -4.63379 -10.5234 -9.50195 -15.5488 -14.5283c-16.0977 -16.333 -26.8564 -31.4893 -31.8037 -39.0283
c-10.5225 -16.0195 -24.7363 -42.4834 -33.1387 -77.7422c-2.43457 -10.3652 -4.24023 -20.8877 -5.33984 -31.4111c6.75293 -3.92578 13.3496 -8.16699 19.7109 -12.7207c10.1299 -7.22461 17.5107 -13.7432 21.0449 -16.9629
c8.7168 -8.00977 14.4492 -14.6055 18.6113 -19.4746c10.1299 -11.7002 19.0029 -24.1074 26.542 -36.751zM403.317 65.8057c28.7412 47.5879 31.2549 95.4111 29.7627 109.86c-0.236328 1.64941 -1.72754 16.6484 -4.94727 36.2012
c-1.72754 8.48145 -4.00488 16.9619 -6.59668 25.2861c-15.2344 -2.43457 -30.1543 -6.75293 -44.2891 -12.8789c-15.0781 -6.51758 -29.998 -15.5479 -43.1904 -26.0703c-6.83203 -5.41895 -20.2607 -17.1982 -34.0029 -35.0234
c-10.0508 -13.1143 -18.6895 -27.4854 -25.5215 -42.6406c8.08887 -21.0459 13.1934 -42.7979 15.1562 -64.707c1.57031 -17.8252 0.863281 -32.4316 0 -41.541c-1.25684 -13.5068 -3.84766 -27.0137 -7.69629 -40.0488c32.5107 9.03027 62.1943 25.5996 86.2236 48.0586
c13.2715 12.4072 25.3643 27.4062 35.1016 43.5039z" />
    <glyph glyph-name="book" unicode="&#xf113;" 
d="M264.795 0.707031v343.95c47.8232 40.6777 119.598 66.1211 194.199 68.0049v-335.627c-68.8691 -2.35547 -143.392 -31.8818 -194.199 -76.3281zM247.205 344.657h-0.0791016v-344.029c-50.7285 44.4473 -125.33 73.9736 -194.198 76.3291v335.705
c74.6016 -1.80566 146.454 -27.3271 194.277 -68.0049zM247.205 -28.6621v0c-66.5127 34.1592 -134.832 52.9268 -220.741 52.9268h-26.4639v353.139h35.3379v-317.801h8.79492c72.7158 0 153.757 -38.4785 203.072 -88.2646zM476.662 377.403h35.3379v-353.139h-26.542
c-85.9092 0 -154.229 -18.6895 -220.663 -52.9268v0c49.3154 49.7861 130.356 88.2646 203.072 88.2646h8.79492v317.801z" />
    <glyph glyph-name="book-of-the-month" unicode="&#xf114;" 
d="M468.496 349.604v-309.084c0 -3.53418 -1.41406 -6.91113 -3.84863 -9.2666c-2.43359 -2.5127 -5.88965 -4.00488 -9.50098 -4.00488h-11.6221c-3.45605 0 -6.67578 1.41309 -9.10938 4.08301c-2.04199 2.27734 -3.21973 5.26172 -3.21973 8.32422v284.427
l-156.349 -80.333v-295.5c0 -2.43359 -0.707031 -4.79004 -2.04199 -6.75293c-2.27734 -3.45508 -6.125 -5.49707 -10.208 -5.49707h-12.0938c-3.5332 0 -6.98926 1.49219 -9.34473 4.00488c-2.27734 2.35547 -3.6123 5.5752 -3.6123 9.03027v294.558l-156.584 80.334
v-283.171c0 -3.53418 -1.41309 -6.91016 -3.84766 -9.2666c-2.43457 -2.5127 -5.88965 -4.00488 -9.50195 -4.00488h-11.5439c-4.16113 0 -8.00977 2.04199 -10.2871 5.41895c-1.49121 2.04102 -2.27734 4.63281 -2.27734 7.22461l0.157227 308.613
c0 5.02539 1.57031 9.81543 4.39746 13.5068c1.25684 1.64844 2.74902 3.0625 4.47656 4.39746l2.04199 1.49219h0.62793c2.35547 1.17773 4.94727 1.72754 7.61719 1.72754h4.71191c2.82617 0 5.73242 -0.707031 8.48047 -1.96387h0.157227l180.221 -91.7979
l180.378 92.8193c1.57031 0.863281 10.2871 5.02539 19.5537 0.549805c6.0459 -2.98438 9.03027 -8.08887 10.208 -10.916c1.25684 -2.82617 1.96387 -5.88867 1.96387 -8.95215zM209.354 316.466c-1.72754 2.27734 -2.66992 4.94727 -2.66992 7.77441v110.488
c0 3.69141 1.49219 7.14648 4.24023 9.65918c2.51367 2.35547 5.6543 3.53418 9.03125 3.53418l45.8604 -0.0791016c7.61719 0 14.6846 -1.57031 20.9668 -4.79004c0.313477 -0.157227 0.62793 -0.314453 0.942383 -0.470703
c0.15625 -0.0791016 0.392578 -0.157227 0.548828 -0.314453l0.393555 -0.235352c4.08301 -2.19922 12.4854 -6.91113 17.5107 -16.8838c6.04688 -12.0146 3.37695 -23.3223 2.35645 -27.6416c-0.62793 -2.98438 -2.12012 -9.58008 -7.30371 -15.4697
c1.33496 -1.33496 2.5918 -2.66992 3.84863 -4.16211c2.59082 -3.1416 4.63281 -7.06738 5.73242 -11.4648c2.27734 -8.87402 3.6123 -21.6738 -2.90527 -32.5107c-2.98438 -4.86914 -7.93164 -9.65918 -10.6016 -12.0146l-0.0791016 -0.0791016
c-3.76855 -3.37598 -7.69531 -5.96777 -11.543 -7.85254l-1.57031 -0.706055h-0.236328c-3.45508 -1.33496 -7.06738 -2.04199 -10.7578 -2.04199h-53.6348c-3.92578 0.235352 -7.69531 2.12012 -10.1299 5.26074zM271.312 363.74
c-0.313477 0.15625 -0.62793 0.313477 -1.02051 0.392578c-1.09961 0.392578 -2.35547 0.549805 -3.69043 0.549805h-24.4229v-18.4541h25.3652c2.12012 0 4.08301 0.549805 5.49609 1.57031c0.393555 0.235352 0.864258 0.707031 1.33496 1.17773
c0.942383 1.09961 3.37695 4.55469 2.43457 8.48145c-0.785156 3.29785 -3.45508 5.26074 -5.49707 6.28223zM274.219 408.029v0.0791016c-0.549805 1.96289 -1.88477 3.5332 -4.00488 4.79004l-0.628906 0.392578c-1.17773 0.549805 -2.5127 0.863281 -4.00488 0.863281
h-23.4014v-14.998h25.9141c0.0791016 0 3.21973 0.15625 5.18359 2.66992c1.96289 2.66992 1.02051 6.0459 0.942383 6.20312zM228.279 149.359c0 -38.5566 -31.6465 -69.8896 -70.5957 -69.8896c-38.9502 0 -70.5967 31.333 -70.5967 69.8896
c0 38.5576 31.6465 69.8896 70.5967 69.8896c38.8711 0 70.5957 -31.332 70.5957 -69.8896zM157.762 182.577c-18.2178 0 -32.9814 -14.7637 -32.9814 -32.9824c0 -18.2178 14.7637 -32.9814 32.9814 -32.9814c18.2188 0 32.9814 14.7637 32.9814 32.9814
c0 18.2188 -14.8418 32.9824 -32.9814 32.9824zM407.559 210.689l0.157227 -0.157227c1.49121 -2.35547 2.27637 -4.94727 2.27637 -7.61719v-10.6006c0 -3.76953 -1.57031 -7.38184 -4.31836 -9.97363c-2.5918 -2.35547 -5.88965 -3.69043 -9.34473 -3.69043h-26.7783
v-81.2764c0 -2.35547 -0.62793 -4.55469 -1.80566 -6.51758c-2.19922 -3.76953 -6.36133 -6.125 -10.8369 -6.125h-12.6436c-3.84766 0.235352 -7.38086 2.19824 -9.58008 5.33984c-1.41309 1.96289 -2.19824 4.47559 -2.19824 6.91016v81.6689h-26.7002
c-3.5332 0 -6.98828 1.41309 -9.50195 3.92676c-2.5127 2.5127 -3.92578 5.96777 -3.92578 9.50098v11.6221c0 3.06348 1.09961 6.04688 3.0625 8.40332c2.43457 2.90527 6.04688 4.63281 9.97266 4.63281h90.6211c4.55469 0 8.87402 -2.19922 11.5439 -6.04688z" />
    <glyph glyph-name="bookdinners" unicode="&#xf2fa;" 
d="M350.391 242.572c2.74805 -3.69141 11.0723 -15.6279 14.998 -33.2959c1.17773 -5.33984 4.47656 -23.0088 -1.02051 -41.7773c-9.2666 -31.6465 -41.8555 -60.3086 -80.4912 -60.8584c-33.2168 -0.47168 -55.833 20.1816 -61.251 25.4424l-59.3672 59.917
l59.3672 59.7598c32.9814 33.0596 86.6162 33.1387 119.676 0.157227c4.24023 -4.24121 8.08887 -9.34473 8.08887 -9.34473zM381.33 448c72.167 0 130.67 -58.5029 130.592 -130.67v-250.66c0 -72.167 -58.5039 -130.67 -130.67 -130.67h-250.582
c-72.167 0 -130.67 58.5029 -130.67 130.748v250.582c0 72.167 58.5029 130.67 130.67 130.67h250.66zM375.676 99.2588c51.1221 51.1211 51.2002 134.125 0.0791016 185.247c-50.9648 51.1992 -133.732 51.3564 -184.933 0.392578
c-0.157227 -0.157227 -0.235352 -0.236328 -0.392578 -0.392578l-92.5059 -92.5059l92.5059 -92.6621c51.1211 -51.1221 134.046 -51.2002 185.246 -0.0791016z" />
    <glyph glyph-name="booknode" unicode="&#xf337;" 
d="M375.755 211.632c81.9043 -27.3271 98.5518 -102.949 79.7051 -162.316c-20.7314 -65.4922 -67.7695 -103.264 -134.596 -111.273c-40.6777 -4.86914 -82.5332 -0.0791016 -123.917 0.392578c-31.5684 0.392578 -63.0576 0.785156 -94.626 1.17773
c-8.40234 0.157227 -16.8828 -0.62793 -25.207 0.235352c-9.65918 1.02148 -13.2715 6.75391 -9.34473 17.1973c2.12012 0.786133 4.63281 2.5918 7.14551 2.51367c26.543 -0.942383 37.3008 15.5479 42.0127 38.2422c2.12012 10.209 4.00488 20.7314 4.08301 31.1758
c0.942383 110.253 1.80664 220.584 2.12012 330.837c0.157227 43.7402 -16.0977 61.4082 -58.7383 66.6699c-7.06738 0.864258 -15.3916 0.549805 -14.9199 10.5225c0.470703 9.81641 8.79492 9.18848 15.8623 9.2666c69.5752 0.62793 139.072 1.41309 208.647 1.72754
c31.4111 0.157227 61.1738 -7.61719 88.5791 -23.3223c64.2363 -36.9082 74.3662 -123.132 20.2607 -174.175c-10.1299 -9.58008 -21.5166 -17.7471 -35.0234 -28.8193c10.915 -3.92676 19.3174 -7.14648 27.9561 -10.0518zM184.305 392.245
c-1.17871 -9.7373 -1.96387 -19.5527 -2.43457 -29.1338c-1.57031 -26.4639 -1.64941 -53.084 -0.47168 -79.627c0.549805 -13.1143 1.25684 -25.835 2.43457 -38.3994c1.64941 -17.8262 3.69141 -19.2393 20.6533 -19.6318c26.6992 -0.549805 53.4766 -1.25684 80.0977 0
c51.1211 2.43359 83.4746 41.7764 77.5068 92.584c-2.66992 22.3799 -12.1719 41.6982 -27.0918 58.3457c-30.0762 33.6094 -68.7119 47.2734 -112.923 47.3525c-26.8564 0.078125 -34.4736 -5.10449 -37.7715 -31.4902zM379.838 0.864258
c32.9033 43.0322 29.8408 116.456 -6.6748 156.584c-25.207 27.6416 -57.7178 39.3418 -93.7617 42.0117c-26.6211 1.96289 -53.3203 1.57031 -80.0195 2.43457c-10.0518 0.314453 -16.0195 -4.16211 -18.1396 -13.7422
c-0.864258 -4.16211 -1.33496 -8.40234 -1.49219 -12.5645c-1.17773 -28.1133 -2.27734 -56.1475 -3.0625 -76.5645c0 -35.1016 -0.314453 -62.5078 0.078125 -89.9141c0.314453 -21.752 9.2666 -34.0029 29.6836 -40.9131
c7.22461 -2.5127 14.999 -4.24023 22.6162 -4.31934c25.9922 -0.392578 51.9854 -0.706055 77.9775 0.392578c29.3691 1.33496 54.3408 12.5645 72.7949 36.5947z" />
    <glyph glyph-name="booksirens" unicode="&#xf302;" 
d="M227.494 446.194c129.021 14.5273 252.467 -75.2295 279.559 -202.916c9.7373 -44.8389 4.86914 -102.399 -12.3291 -146.454c-12.6426 -33.374 -42.7188 -77.9775 -52.1416 -77.9775c-1.88477 0 -5.10449 7.22461 -7.77441 16.0977
c-2.43457 9.18848 -11.5439 30.3906 -20.417 47.5879c-8.87402 17.1982 -16.0986 33.6104 -16.0986 36.8301c0 2.9834 4.86914 12.3281 10.7588 20.9668c24.4219 34.709 24.1855 48.373 -1.64941 99.1797c-19.9463 39.5781 -25.2861 55.6768 -25.2861 77.9785
c0 18.7676 -3.5332 22.5371 -18.8467 19.8672c-33.374 -5.6543 -74.208 -38.1641 -91.4062 -72.5596c-8.87305 -17.4326 -9.42285 -20.417 -9.42285 -44.6035c0 -25.2861 -0.235352 -25.7568 -5.33984 -22.3018c-17.9834 11.2295 -57.4824 14.999 -85.9883 7.77441
c-23.4014 -5.88965 -57.0107 -23.4014 -73.6582 -38.165c-16.0986 -13.9775 -30.3906 -34.1592 -27.9561 -39.8135c0.549805 -2.19824 9.10938 -6.43848 18.5322 -9.42285c24.1865 -8.08887 41.3838 -20.417 70.125 -50.0225
c28.5059 -29.0547 42.248 -36.8291 65.335 -36.8291c15.0771 0 36.5938 5.6543 54.5771 14.7627l9.97266 4.86914v-15.3125c0 -47.0381 -16.1768 -79.5488 -46.8027 -95.4111c-13.1924 -6.6748 -31.7246 -5.10449 -62.9004 4.86816
c-89.207 29.291 -154.777 102.086 -173.938 193.257c-5.88965 28.5049 -5.88965 76.8779 0 104.834c22.6162 106.955 114.808 190.822 223.097 202.916z" />
    <glyph glyph-name="bookwyrm" unicode="&#xf115;" 
d="M509.958 330.522c2.90625 -5.73242 1.96387 -11.2295 1.80664 -13.3496c-1.33496 -8.48047 -8.63867 -14.2129 -17.6689 -11.8574c-1.25684 0.235352 -1.72754 0.470703 -3.37695 1.02051c-3.92578 1.25684 -6.98828 1.72754 -10.0508 2.19922
c-14.999 2.19824 -25.5215 0.392578 -38.5576 -3.0625c-2.43457 -0.314453 -2.43457 -3.76953 0 -4.16211c2.5918 -0.864258 52.7705 0.62793 56.6973 0.470703c1.88477 0.0791016 3.5332 -1.57031 3.5332 -3.45508v-17.6689c0 -1.41309 -0.62793 -2.66992 -1.64844 -3.6123
c-0.942383 -0.863281 -2.12012 -1.33496 -3.37695 -1.25586l-7.93164 0.235352l0.236328 -10.9941c0.15625 -4.47559 -1.33594 -9.03027 -4.00586 -12.5645c-0.706055 -1.09863 -2.04102 -1.80566 -3.37598 -1.80566c-1.09961 0 -2.5918 -0.157227 -3.6123 0.549805
c-1.33496 0.785156 -2.04199 2.12012 -2.04199 3.5332v6.6748c-0.392578 2.51367 -2.98438 3.06348 -4.24023 1.57129c-2.82715 -6.2041 -7.06738 -10.916 -11.0723 -12.0938c-2.43457 -0.549805 -5.88965 -0.235352 -7.69629 1.88477
c-1.57031 1.80664 -1.02051 3.76953 -1.02051 11.0723c0 1.17773 -0.0791016 2.27734 -0.0791016 3.21973c-0.078125 3.29785 -1.80566 6.2041 -4.47559 8.00977c-2.98438 1.96289 -6.28223 3.1416 -11.8574 4.00488c-9.58105 1.64941 -26.6211 0.628906 -41.541 -5.10449
c1.17773 -1.96289 2.35547 -5.73242 1.80566 -8.40234l-8.24512 -53.3203c16.8047 -10.915 31.7246 -26.6201 39.2637 -39.0283c11.4648 6.04688 27.0137 7.14648 34.7881 5.6543c5.49609 -0.863281 10.9932 -1.72754 16.5693 -5.88965
c1.02051 -0.706055 9.1084 -6.98828 10.915 -17.9043c0.157227 -1.17773 0.942383 -6.125 -0.942383 -11.7793c-0.785156 -2.43359 -2.04199 -5.96777 -5.02539 -7.06738c-1.02148 -0.313477 -2.90625 -0.706055 -3.84863 0.236328
c-0.785156 0.863281 -0.313477 2.19824 -1.09863 2.74805c-0.707031 0.392578 -1.80664 -0.078125 -2.51367 -0.47168c0.0791016 -0.235352 0.864258 -2.27637 -0.235352 -4.31836c-0.078125 -0.157227 -1.09961 -2.04199 -3.37695 -2.5127
c-2.59082 -0.549805 -4.63281 1.17773 -5.02539 1.57031c-1.57031 1.41309 -1.72754 2.90527 -2.5127 4.79004c-4.31934 9.03027 -11.6221 11.6221 -22.0664 6.36035c10.915 -32.667 11.6221 -75.2295 -7.69531 -111.273
c-17.748 -33.8447 -48.6094 -59.0527 -82.9258 -68.5547c-15.627 -5.02539 -25.6787 -5.88965 -28.4268 -6.125c-6.43945 -0.470703 -11.8574 -0.314453 -15.7051 0c-11.3867 0.62793 -25.9932 2.66992 -42.248 8.16699c-14.0566 4.94727 -26.0713 11.3076 -39.8135 16.5693
c-20.2607 8.00977 -44.7607 20.5742 -62.8223 32.0391c-15.4697 -67.2979 -79.1562 -83.3174 -125.565 -53.1631c-41.4629 27.249 -48.4521 81.8262 -23.873 120.147c3.84863 5.88965 12.8789 17.8252 28.584 26.542c14.6855 7.93164 36.5156 13.4287 53.6348 10.916
c8.24512 -1.17871 14.6064 -3.6123 19.3174 -5.41895c6.83203 -2.5918 12.3291 -5.5752 16.334 -7.93164l9.7373 57.9541c-48.6865 12.957 -90.542 62.3506 -97.2168 113.001c-3.21973 21.9092 -0.235352 38.793 1.33496 47.2734
c4.08301 26.9355 19.6318 59.2881 49.708 82.4541c9.65918 8.16699 38.9492 25.3643 60.1523 27.9561c8.08789 1.17773 14.6846 1.17773 22.0664 1.09961c15.7051 0.078125 29.9189 -1.64941 47.5088 -8.87402c43.0332 -16.9619 76.957 -39.1855 118.812 -59.9951v2.35547
c0 2.5918 0.785156 5.18359 2.27734 7.38184c1.25586 1.64941 3.45508 2.35645 5.41797 1.80664c2.5918 -0.786133 3.37695 -3.45605 3.37695 -3.6123c0.785156 -1.88477 2.04199 -4.55469 4.31934 -7.30371c2.66992 -3.29785 5.49609 -5.02539 7.93066 -6.5957
c2.98438 -1.88477 5.41895 -3.37695 8.87402 -3.84863c2.12012 -0.313477 3.84766 -0.15625 5.02539 0c4.79004 11.7012 18.4541 15.5488 28.8193 12.958l8.32422 16.2549c0.942383 1.72754 2.5918 3.0625 4.55469 3.29785
c3.6123 0.549805 6.6748 -2.82715 5.96777 -6.43945c-0.078125 -0.706055 0 -1.41309 0.236328 -2.12012c1.96289 -5.33984 6.98828 -11.3076 10.1299 -15.2344c3.69043 -4.47559 5.49707 -6.75293 7.85254 -8.7168c5.02539 -4.24023 10.209 -7.30273 10.209 -7.30273
c1.33496 -0.785156 3.0625 -1.72754 4.94727 -3.6123c1.80566 -1.72754 2.35547 -2.90527 3.6123 -4.63281c4.16113 -5.73242 9.7373 -8.95215 12.25 -10.3662c1.72754 -1.02051 3.21973 -1.64844 4.24023 -2.12012c2.12012 8.63867 14.8418 12.3291 22.6943 6.98926
c2.82715 -1.96289 4.16211 -4.55469 4.94727 -6.04688zM370.101 114.572l-10.0518 -55.9121c13.2715 13.2715 15.5488 32.2744 14.4492 42.0908c-0.314453 5.18262 -1.02051 9.89453 -4.39746 13.8213zM355.259 53.085l-10.915 0.863281l-0.707031 -10.0518
c3.45508 1.41406 9.1875 5.81152 11.6221 9.18848zM209.04 309.006c15.3135 -2.82715 30.626 -5.65332 45.7822 -8.48047l1.09961 2.74805c0.706055 2.12012 1.64844 3.69141 2.5127 4.79004c2.12012 2.66992 4.00488 3.1416 5.26074 5.6543
c0.864258 1.72754 1.02148 3.45508 0.942383 4.79004c-5.96777 -3.14062 -11.3076 -4.31934 -14.7627 -4.79004c-8.08887 -1.49219 -16.8838 -0.470703 -24.0293 5.33984c-2.66992 1.41309 -4.16211 4.94727 -2.51367 7.61719
c0.864258 1.33496 2.27734 1.57031 5.6543 2.5127c8.55957 2.35645 16.4912 4.79004 18.376 14.292c-20.1816 10.2871 -55.2842 19.3965 -67.4551 17.5117c-11.9365 -0.942383 -20.4961 -4.79004 -22.9307 -5.88965c-7.77441 -3.0625 -26.3848 -16.8828 -32.9033 -33.8447
c-3.76855 -9.10938 -4.16113 -16.9619 -4.31836 -21.124c-0.314453 -6.36133 0.392578 -11.7012 1.09863 -15.4707c10.3662 -6.75293 27.7988 -15.5479 35.416 -14.292c2.27734 0.157227 4.00488 0.628906 5.26172 0.942383
c0.62793 9.50195 4.31934 22.8516 16.8047 31.5684c6.2041 4.08398 12.4863 5.26172 17.2764 6.125c4.47559 0.785156 9.03027 0.785156 13.4277 0zM278.066 296.913l22.459 -3.21973l-7.93164 10.915c-3.69043 -3.21973 -10.4443 -6.6748 -14.5273 -7.69531z
M117.085 45.7031l-25.6787 17.2764c-20.0244 11.0723 -47.4307 -8.00977 -42.248 -33.6104c4.86914 -18.7676 27.5635 -25.9922 39.0283 -20.8877c6.59668 2.66992 10.1299 7.69531 11.3867 9.7373z" />
    <glyph glyph-name="bookyogaretreat" unicode="&#xf116;" 
d="M289.609 363.19c0.393555 -5.49707 0.864258 -11.0723 4.71191 -15.5488c2.5918 -3.0625 6.125 -4.71191 9.89453 -4.63281c8.32422 0.157227 16.5693 0.863281 24.8936 1.33496c5.73242 0.313477 11.3867 0.62793 17.1191 0.863281
c6.0459 0.236328 12.0146 0.314453 18.0615 0.628906c4.94629 0.235352 8.48047 -2.27734 9.03027 -8.00977c0.785156 -8.7959 1.41309 -17.5908 1.96289 -26.3857c0.392578 -6.04688 0.628906 -12.1719 0.942383 -18.2188
c0.314453 -5.5752 0.62793 -11.2295 1.02148 -16.8047c0.235352 -2.90527 0.706055 -5.73242 0.863281 -8.6377c0.314453 -7.30371 -3.6123 -11.6221 -10.7578 -11.9365c-6.98926 -0.313477 -14.0566 -0.863281 -21.0459 -1.33496
c-8.95215 -0.62793 -17.9043 -1.25586 -26.8564 -1.88477c-3.5332 -0.235352 -7.14551 -0.157227 -10.5225 -1.02051c-7.38184 -1.80664 -10.5225 -6.36035 -10.7588 -13.6641c-0.235352 -6.20312 0.47168 -12.4854 0.864258 -18.6895
c0.157227 -2.74805 0.314453 -5.41797 0.470703 -8.16699c0.314453 -6.36035 0.628906 -12.7998 1.02148 -19.1602c0.549805 -9.03125 1.25586 -18.0615 1.80566 -27.0137c0.392578 -5.41895 0.628906 -10.916 0.942383 -16.334
c0.47168 -8.55957 0.942383 -17.1191 1.41406 -25.6787c0.235352 -4.63281 0.470703 -9.34473 0.942383 -13.9775c0.548828 -5.33984 0.942383 -10.6797 1.96289 -15.8623c1.02051 -5.26172 2.43457 -10.4443 4.16211 -15.5488
c5.18262 -14.999 13.2705 -27.9561 27.7197 -35.7305c5.02637 -2.74805 10.6797 -4.47559 16.1768 -5.96777c4.94727 -1.25684 10.1299 -1.49219 15.1562 -2.12012c0 0.078125 0.078125 0.157227 0.078125 0.235352c3.76953 0 7.45996 -0.078125 11.2295 0
c3.21973 0.0791016 5.88965 -2.98438 6.36035 -6.36035c0.628906 -4.31934 1.09961 -8.63867 1.41406 -12.957c0.549805 -9.03125 0.942383 -18.0615 1.49219 -27.0928c0.392578 -7.45996 0.863281 -14.9199 1.41309 -22.3799
c0.392578 -5.81152 0.864258 -11.6221 1.33496 -17.4336c0.392578 -5.26074 -3.37695 -9.97266 -8.6377 -10.6006c-9.97363 -1.17773 -20.0244 -0.942383 -30.0762 -0.628906c-6.75391 0.236328 -13.585 0.47168 -20.3389 1.17871
c-7.06738 0.785156 -13.9775 2.27734 -20.9668 3.69043c-4.16211 0.864258 -8.32422 1.88477 -12.4072 3.21973c-6.83203 2.27734 -13.6641 4.63281 -20.2598 7.53906c-6.83203 3.0625 -13.6641 6.28125 -19.8682 10.3652
c-7.06738 4.63281 -13.5068 10.1299 -19.9453 15.7051c-8.63867 7.46094 -15.3135 16.5693 -21.124 26.2285c-1.72754 2.82715 -3.21973 5.81152 -4.63379 8.79492c-2.35547 4.94727 -4.71094 9.89453 -6.75293 14.999c-3.84766 9.97266 -6.43945 20.2598 -8.48145 30.7832
c-2.59082 13.3496 -3.6123 26.9346 -4.31836 40.5195c-0.392578 7.30371 -0.864258 14.6064 -1.33496 21.9883c-0.314453 4.86816 -0.549805 9.6582 -0.942383 14.4492c-0.47168 5.88965 -1.09961 11.7002 -1.41406 17.5898
c-0.549805 9.10938 -0.863281 18.2188 -1.41309 27.3271c-0.392578 6.36133 -1.02051 12.7217 -1.41406 19.0039c-0.235352 4.00488 -0.235352 8.08887 -0.470703 12.1719c-0.392578 5.81152 -1.09961 11.5439 -1.33496 17.3545
c-0.157227 3.21973 -1.17773 6.43945 -3.21973 8.87402c-3.69043 4.55469 -8.79492 5.5752 -14.292 5.41797c-3.84766 -0.078125 -7.61719 -0.549805 -11.4648 -0.785156c-8.87402 -0.549805 -17.7471 -1.25586 -26.6992 -1.41309
c-6.51855 -0.157227 -9.34473 3.92578 -9.81641 9.42285c-0.470703 5.02637 -0.62793 10.0518 -0.942383 14.999c-0.470703 8.00977 -1.02051 16.0195 -1.49219 24.0293c-0.470703 7.77441 -0.942383 15.5488 -1.41309 23.3232
c-0.157227 2.59082 -0.235352 5.18262 -0.47168 7.69531c-0.706055 7.77441 5.18359 10.6016 10.6807 10.7578c3.61133 0.157227 7.14551 0.157227 10.7578 0.392578c7.30273 0.47168 14.6064 0.942383 21.8311 1.64941c3.45508 0.314453 6.91016 0.864258 10.2871 1.80664
c5.18262 1.49121 8.71582 7.06738 8.6377 12.8779l-5.18262 87.7939c-0.0791016 1.57031 0.392578 3.1416 1.49219 4.39746v0c1.09863 1.25684 2.66992 2.04199 4.39746 2.19922l97.0596 5.18262c4.86914 0.157227 6.36133 -1.64941 6.6748 -6.51758z" />
    <glyph glyph-name="boostyto" unicode="&#xf324;" 
d="M56.7754 142.135l88.3438 305.865h135.695l-27.3271 -94.7832c-0.235352 -0.548828 -0.549805 -1.09863 -0.785156 -1.64844l-72.0889 -250.347h67.2197c-28.1914 -70.125 -50.1006 -125.173 -65.8057 -164.986c-124.074 1.33496 -158.783 90.2285 -128.393 195.299z
M182.498 -64l163.651 235.426h-69.3398l60.3877 150.93c103.5 -10.8369 152.266 -92.3477 123.524 -190.979c-30.626 -105.934 -154.699 -195.299 -275.475 -195.299c-1.17871 -0.078125 -1.96387 -0.078125 -2.74902 -0.078125z" />
    <glyph glyph-name="boothpm" unicode="&#xf117;" 
d="M465.434 250.896l46.5664 -40.9131v-97.4521h-46.5664v-176.295h-45.3105v32.7461c0 80.4912 -69.8896 145.747 -156.191 145.826h-0.0791016h-0.078125h-0.62793c-52.7715 -0.314453 -95.4111 -40.2852 -95.4111 -89.6006v-89.0498h-62.1152v196.555h-30.3906
c-15.7842 0 -28.6631 12.7998 -28.6631 28.6621v178.258h-46.5664v61.8018h46.5664v17.7471h60.8594v-200.481l89.4434 211.239h29.6045l52.8486 -111.038l53.7129 128.942h34.0029l98.3955 -157.526v-39.4209z" />
    <glyph glyph-name="brevo" unicode="&#xf118;" 
d="M361.306 239.666c48.0586 -31.0186 75.1504 -78.998 75.2295 -132.476c0 -97.6104 -88.3438 -171.19 -206.057 -171.19h-154.935v512h192.078c78.2139 0 130.12 -48.0586 130.12 -119.99c0 -34.8662 -11.6221 -63.5283 -36.4365 -88.3438zM145.276 381.408v-189.016
h2.35547c7.77441 14.7637 28.6631 27.1709 75.1514 41.8555c68.1611 22.459 101.457 51.9062 101.457 90.6211c0 34.0801 -25.5996 56.5391 -64.3135 56.5391h-114.65zM224.274 2.5918c79.7842 0 138.602 45.7031 138.681 107.661
c0 36.4365 -20.8887 71.2246 -54.9697 91.4062c-25.5996 -13.1143 -55.7549 -25.5215 -92.1914 -37.9287c-41.0703 -13.1934 -70.5176 -47.2744 -70.5176 -82.1406v-78.998h78.998z" />
    <glyph glyph-name="btclighting" unicode="&#xf325;" 
d="M245.085 232.284c-8.00977 1.25684 -15.9414 2.90625 -24.5791 4.47656c3.5332 15.3125 6.91016 29.7617 10.3652 44.5254c12.1719 -2.35645 23.6367 -4.63379 34.2383 -9.89453c2.66992 -1.33496 5.18262 -2.98438 7.53809 -4.79004
c5.96875 -4.71191 8.63867 -10.916 7.14648 -18.4541c-1.49219 -7.45996 -6.04688 -12.4072 -13.3496 -14.6846c-7.06738 -2.27734 -14.2139 -2.35645 -21.3594 -1.17871zM511.215 76.957c0 -77.7422 -63.2148 -140.957 -140.957 -140.957
c-48.6875 0 -91.7207 24.8145 -117.085 62.5078c-8.79492 -1.02051 -17.7471 -1.57031 -26.8564 -1.57031c-124.545 0 -225.531 100.986 -225.531 225.531s100.986 225.531 225.531 225.531s225.531 -100.986 225.531 -225.531
c0 -9.97266 -0.62793 -19.7109 -1.88477 -29.291c36.9863 -25.4424 61.252 -68.083 61.252 -116.221zM227.887 92.584c3.0625 12.7217 5.96875 24.6582 8.95215 36.9082c0.864258 -0.0791016 1.72754 -0.157227 2.51367 -0.235352
c4.63281 11.4648 10.6797 22.2227 17.9824 31.96c-0.785156 -0.15625 -1.49219 -0.235352 -2.27734 -0.392578c-11.6221 -1.64844 -21.8311 -0.078125 -24.1865 0.314453c-2.43457 0.392578 -7.53906 1.57031 -17.7471 4.00488
c-3.69043 0.864258 -6.6748 1.57031 -8.79492 2.12012l11.6221 48.5303c9.89453 -1.80664 18.0615 -4.00488 24.0293 -5.88965c14.999 -4.63281 19.8672 -7.85254 22.3799 -9.81641c4.47656 -3.45508 9.50195 -7.38086 11.2295 -14.3701
c0.157227 -0.707031 0.707031 -2.90527 0.628906 -5.73242c10.2871 9.65918 22.0654 17.7471 34.9443 23.9512c-3.92676 3.5332 -7.77441 7.14551 -11.7793 10.8369c0.707031 0.313477 1.33496 0.62793 2.04199 0.863281c18.8467 6.91016 29.0557 25.7568 24.8145 45.4678
c-2.19824 10.0518 -8.32324 17.2754 -16.6475 22.459c-7.38184 4.63281 -15.4697 8.16699 -23.3232 12.0928c-1.88379 0.942383 -3.84766 1.72754 -5.65332 2.5918c2.9834 12.0928 5.73242 23.4014 8.6377 35.2588c-7.69531 2.12012 -14.7627 4.31934 -22.459 5.81055
c-3.0625 -12.1709 -5.96777 -23.6367 -8.95215 -35.3369c-6.20312 1.57031 -11.543 2.98438 -17.3545 4.47559c2.90527 12.0146 5.73242 23.5586 8.6377 35.5732c-8.16602 2.04199 -15.7832 3.92676 -23.8721 5.96777c-3.0625 -12.0928 -5.96777 -23.5576 -9.10938 -35.8086
c-15.5479 3.53418 -30.626 6.91113 -45.8604 10.4443c-2.04102 -8.16699 -3.84766 -15.627 -5.88867 -23.6367c3.29785 -0.706055 6.20312 -1.25586 8.95215 -2.04102c2.82617 -0.786133 5.65332 -1.80664 8.40234 -2.90625
c8.55957 -3.37598 10.2871 -6.91016 8.24512 -15.627c-3.0625 -12.957 -5.88965 -25.9141 -8.95215 -38.8711c-4.24023 -17.8252 -8.55957 -35.6514 -12.7998 -53.4775c-2.19922 -9.26562 -6.28223 -11.7783 -15.5488 -9.34473
c-4.00488 1.02148 -7.93066 2.12012 -12.1719 3.29883c-3.5332 -8.63867 -6.83203 -16.6484 -10.4443 -25.3652c8.32422 -1.72754 15.9414 -3.21875 23.4805 -4.79004c7.53809 -1.57031 15.0771 -3.29785 22.3799 -6.125
c-2.9834 -12.4854 -5.81055 -24.4219 -8.7168 -36.751c7.77441 -2.12012 14.8418 -4.00488 22.3809 -5.96777c3.0625 11.9365 5.96777 23.4014 9.03027 35.4941c6.04688 -1.49219 11.5439 -2.82715 17.3545 -4.31836c-2.9834 -12.1719 -5.81055 -23.6377 -8.71582 -35.5732
c7.93066 -2.12012 15.1553 -4.00488 22.6152 -6.04688zM499.2 76.957c0 71.1465 -57.875 128.942 -128.942 128.942s-128.942 -57.875 -128.942 -128.942s57.875 -128.942 128.942 -128.942s128.942 57.7969 128.942 128.942zM435.357 97.2959
c5.26074 0 8.87305 -1.80664 10.7578 -7.53906c-6.98926 -7.93066 -13.8203 -15.7051 -20.6523 -23.4795c-19.2393 -21.9092 -38.4785 -43.7402 -57.7969 -65.4922c-1.64844 -1.80566 -3.84766 -3.6123 -6.125 -4.39746
c-4.71191 -1.64941 -8.48047 1.02051 -8.79492 5.96777c-0.157227 2.74902 0.314453 5.57617 0.707031 8.32422c2.04102 14.999 4.16113 29.998 6.36035 45.7031c-2.43457 0.157227 -4.55469 0.392578 -6.6748 0.392578h-49.0801
c-1.72754 0 -3.6123 -0.078125 -5.33984 0.157227c-7.14551 1.02051 -9.6582 7.06738 -5.02539 12.7217c4.63281 5.73242 9.65918 11.0723 14.5273 16.6475c19.8672 22.6162 39.8135 45.1533 59.6807 67.7695c0.47168 0.62793 1.02148 1.25586 1.57129 1.80566
c2.82715 2.82715 6.83203 3.76953 9.81543 2.35645c3.21973 -1.57129 4.94727 -4.71191 4.39746 -9.03125c-1.17773 -9.6582 -2.66992 -19.3174 -4.00488 -28.9766c-1.02051 -7.30273 -1.96289 -14.5273 -3.0625 -22.6162
c2.5127 -0.078125 4.55469 -0.313477 6.6748 -0.313477c17.3545 -0.0791016 34.71 -0.157227 52.0645 0z" />
    <glyph glyph-name="byfans" unicode="&#xf119;" 
d="M299.19 230.164c-5.6543 4.08398 -13.8213 9.2666 -24.501 13.5859c-26.0713 10.6006 -48.9229 8.87305 -55.833 8.16699c-35.5732 -3.69141 -58.5029 -23.2441 -65.335 -29.291c-7.06738 -6.2041 -28.0342 -25.1289 -36.751 -57.875
c-13.1143 -49.2373 12.4863 -88.8145 16.334 -94.626c17.04 -25.5215 39.6562 -37.3008 49.001 -41.541c5.88965 -2.66992 42.6406 -18.6895 85.124 -4.79004c8.55957 2.82715 30.5469 10.3652 48.2949 31.332c5.88867 6.91113 9.7373 13.5068 12.25 18.376h89.835
c-3.92578 -14.1348 -11.8574 -36.123 -28.584 -58.5029c-19.082 -25.5215 -39.9697 -38.9502 -51.749 -46.2529c-14.999 -9.42383 -56.54 -34.709 -114.337 -32.668c-7.06738 0.236328 -36.2793 1.64941 -70.8311 16.334c-15.5488 6.59668 -54.3418 23.7158 -84.418 65.335
c-36.8291 51.043 -35.8867 104.991 -35.416 121.168c1.64941 52.1426 23.0879 89.6787 34.0029 106.17c8.79492 13.3496 36.9082 54.498 92.584 76.25c43.7402 17.1191 82.2188 13.585 99.4941 10.915c48.2168 -7.45996 86.6953 -33.8447 100.045 -44.918zM169.855 369.708
v78.2139h154.464c6.75293 -0.392578 15.9404 -1.49219 26.542 -4.08398c23.6367 -5.81055 39.8135 -15.8623 49.001 -21.752c11.4648 -7.30273 30.7041 -19.7891 47.667 -42.876c20.4951 -27.9561 25.9922 -55.3623 28.584 -69.4189
c2.59082 -13.9775 8.32324 -46.5664 -4.08398 -85.752c-2.04199 -6.43945 -12.7998 -39.1064 -42.876 -69.418c-23.8721 -24.1084 -47.9805 -34.6309 -53.085 -36.751c-0.15625 0 -0.313477 -0.0791016 -0.470703 -0.157227
c-17.1973 -7.22461 -35.7305 -10.6797 -54.4199 -10.6797h-151.401v74.915l139.544 0.628906c9.58008 0.078125 19.1611 1.49121 28.2695 4.63281c0.785156 0.314453 1.57129 0.549805 2.35645 0.863281c20.7314 7.85352 32.7461 21.2031 37.457 26.543
c5.6543 6.36035 21.7529 25.207 24.501 54.4189c2.27734 24.6582 -6.28223 43.0332 -8.16699 46.96c-7.06738 14.5273 -16.4902 23.166 -21.752 27.877c-0.785156 0.707031 -1.64941 1.41406 -2.43457 2.12012c-18.5322 15.6279 -42.248 23.7158 -66.5127 23.7158h-133.183z
" />
    <glyph glyph-name="cafecito" unicode="&#xf2ed;" 
d="M108.29 231.656c-5.7334 -26.4639 -6.12598 -52.5352 -0.236328 -79.2344h-17.8252c-2.19922 0 -4.39746 0.157227 -6.59668 0.549805h-0.078125c-15.0781 2.43457 -27.7988 12.957 -32.2754 27.5635c-1.02051 3.29785 -1.57031 6.75293 -1.72754 10.1299
c-0.62793 19.2393 13.1143 34.9443 28.0342 39.1855c3.6123 1.02051 7.38184 1.57031 11.1514 1.72754c6.20312 0.313477 12.4072 0.078125 19.5537 0.078125zM512 69.8115c0 -23.7158 -6.83203 -45.2324 -20.7314 -64.3936
c-12.7217 -17.5898 -29.3691 -30.0752 -49.6289 -37.8496c-12.3291 -4.79004 -25.208 -6.75391 -38.4785 -6.75391c-81.3555 0.157227 -162.71 0.236328 -244.064 0c-26.7773 -0.078125 -50.1006 8.32422 -70.5957 25.3643
c-19.5537 16.334 -31.8828 37.0654 -36.6729 62.0371c-1.17773 6.2041 -1.88477 12.6436 -1.96289 19.0039c-0.314453 14.2139 -0.0791016 28.4268 -0.0791016 42.6406v4.94727c-31.5674 16.4121 -49.7861 41.3057 -49.7861 76.957
c0 35.4941 18.1396 60.2305 49.5508 76.4854c0.0791016 1.41406 0.235352 3.0625 0.235352 4.79004c0 13.8994 0.0791016 27.7207 0 41.6201c-0.15625 24.0293 7.38184 45.624 21.5957 64.707c17.6689 23.5576 41.541 37.6143 70.5957 42.5615
c5.26172 0.864258 10.6797 1.17773 16.0195 1.17773c81.9043 0.0791016 163.73 0.157227 245.635 0c24.8145 -0.078125 47.1162 -7.77441 66.6699 -23.2441c21.9883 -17.3545 35.2588 -39.9707 40.4414 -67.376c0.942383 -4.86914 1.25684 -9.97363 1.25684 -14.9209
v-247.754zM385.492 118.812c20.6523 30.0762 27.249 63.4502 20.0244 98.9443c-7.30273 35.7305 -27.3281 63.4502 -58.5029 82.2188c-52.2207 31.5684 -122.346 22.3018 -164.358 -29.6055c-35.1807 -43.4258 -41.6982 -114.729 8.32422 -167.499
c20.5742 -21.6738 46.6455 -34.3164 76.4072 -37.3789c30.3896 -3.1416 59.0527 3.21973 84.7314 20.7314c8.32324 -3.29883 16.4121 -6.51855 24.5791 -9.65918l29.0547 -11.4648l-10.4443 28.2695c-3.21973 8.32422 -6.43848 16.6484 -9.81543 25.4434zM392.481 330.522
c-41.1494 33.0605 -88.8154 45.3105 -140.644 36.123c-64.1572 -11.3076 -108.682 -49.001 -135.382 -108.054c-7.53809 0 -14.7627 0.15625 -22.0654 -0.0791016c-5.33984 -0.157227 -10.7588 -0.313477 -16.0205 -1.25586
c-15.5479 -2.66992 -28.7402 -9.81641 -38.9492 -21.9092c-14.0566 -16.4912 -19.5537 -35.4951 -14.999 -56.9326c3.37695 -15.9414 11.5439 -29.0557 24.501 -39.1074c9.1875 -7.14551 19.5527 -11.8574 31.1758 -12.7998
c10.1299 -0.863281 20.417 -0.707031 30.5469 -1.02051c1.88477 -0.0791016 3.69043 0 5.41797 0c22.9307 -52.457 60.5449 -87.9512 114.965 -104.756c57.2461 -17.5908 117.163 -2.04199 152.657 25.5996c-9.6582 3.76953 -19.082 7.45996 -28.8975 11.3086
c-75.7793 -39.7354 -156.663 -11.2295 -196.791 44.8389c-43.5039 60.8594 -36.2793 143.077 14.6064 195.062c52.7705 53.9482 134.282 59.9951 193.885 20.1816c59.6025 -39.8916 90.1494 -123.445 47.4307 -202.287c3.6123 -9.2666 7.22461 -18.8467 11.0723 -28.8193
c51.9854 68.1621 48.9229 178.414 -32.5098 243.906z" />
    <glyph glyph-name="calaxy" unicode="&#xf11a;" 
d="M116.613 284.506c-4.47559 -2.19922 -9.03027 -4.31934 -13.5068 -6.59668c-11.7002 -6.04688 -27.0918 -8.08789 -39.1846 -2.04199c-5.26172 2.98438 -6.75391 8.24609 -7.30371 13.8213c-0.785156 8.40234 3.1416 14.6846 9.2666 19.8672
c6.04688 5.02637 13.0352 8.40234 20.3389 10.9941c20.6523 7.53809 42.7188 10.7578 63.7637 16.9619c2.04199 5.81055 3.92676 11.4648 5.96875 17.04c6.28223 17.2764 15.3916 32.9824 26.7773 47.3525c12.4072 16.8838 26.7783 26.1494 46.8809 31.6465
c14.9209 4.31934 30.2334 6.59668 45.7822 7.38184c5.02539 0.235352 10.0518 0.549805 15.0771 0.62793c9.89453 0.235352 19.7891 -1.09961 29.6045 -2.27734c0.236328 0.392578 0.47168 0.628906 0.392578 0.785156c-0.62793 4.86914 0.786133 7.14648 5.6543 7.69629
c9.03125 1.09961 18.6113 -1.80664 24.1084 -9.34473c2.5127 -3.92676 0.942383 -4.94727 -1.64941 -8.32422c44.29 -13.9775 89.0508 -43.7402 97.9238 -92.3486c4.47656 -28.584 -5.81055 -63.293 -16.8828 -89.5996
c-1.33496 -3.0625 -1.25684 -5.41895 0.470703 -8.24609c61.4873 -101.536 18.375 -236.917 -89.6787 -285.526c-85.9873 -40.3623 -193.648 -12.25 -248.696 65.4922c-59.2891 80.4912 -47.7451 196.319 25.207 264.246
c-0.0791016 0.078125 -0.235352 0.235352 -0.314453 0.392578zM420.201 137.973c0.392578 31.4902 -9.2666 62.4297 -26.3848 88.7363c-9.50195 14.5273 -29.8408 17.1191 -42.5625 5.33984c-25.5215 -25.0498 -50.6504 -50.5713 -76.25 -75.543
c-11.8574 -11.3086 -30.1553 -9.18848 -40.9131 2.59082c-21.6738 21.5957 -43.2686 43.2686 -65.0205 64.7852c-3.29883 3.29883 -6.51855 6.59668 -10.1309 9.58105c-13.0352 10.6006 -31.8818 6.5957 -40.4414 -6.36133
c-32.1963 -47.9014 -35.6514 -112.844 -8.79492 -163.887c30.0762 -60.4668 99.5732 -96.8242 166.4 -87.8721c80.8047 9.26562 145.825 80.8047 144.098 162.63zM342.537 290.709c6.43945 19.9463 12.1719 40.0488 18.2969 60.0742
c5.18359 17.1182 6.2041 36.5146 -1.88477 52.9268c-1.17773 2.19922 -2.66992 4.00586 -4.94629 5.26172c-15.7842 8.79492 -32.7461 13.8994 -50.6504 16.0195c-27.3281 3.1416 -55.5195 -0.157227 -80.8057 -11.3076
c-14.6055 -6.51758 -26.2275 -16.2559 -34.709 -29.8408c-8.00977 -12.8779 -13.2715 -26.7773 -17.1973 -41.3057c-0.0791016 -0.313477 0.078125 -0.706055 0.157227 -1.17773c39.499 3.6123 79.5479 -4.86816 115.121 -22.2236
c19.0039 -9.1875 37.5361 -19.1602 56.6182 -28.4268zM358.479 283.484c18.4541 -9.58008 35.0234 -21.4375 55.2832 -26.4639c11.4648 25.9932 23.6367 69.8115 9.10938 96.1182c-11.3076 19.5537 -27.0137 35.8086 -47.5088 45.625
c0 -0.628906 -0.0791016 -0.864258 0 -1.09961c7.38086 -15.4697 7.14551 -34.1602 2.35547 -50.415c-6.43945 -21.2812 -12.6426 -42.4834 -19.2393 -63.7646zM292.908 271.705v0.393555c-1.96387 0.392578 -4.08398 0.15625 -6.125 0.15625
c-38.9502 -1.25586 -77.1143 10.5234 -111.274 28.584c-12.1709 6.59668 -24.9717 11.7012 -38.9492 13.2715c-19.4746 2.5127 -41.3057 2.66992 -57.6396 -9.81543c-2.19824 -1.72852 -4.24023 -3.84863 -5.73242 -6.2041
c-2.9834 -4.79004 -0.863281 -9.97266 4.47656 -11.7002c1.33496 -0.47168 2.74805 -0.707031 4.16211 -0.864258c7.69531 -0.549805 15.3125 -0.235352 22.5371 2.5127c11.9365 4.63379 23.9512 8.95215 35.0234 15.3916c2.35547 1.33496 4.86816 2.43457 7.30273 3.6123
c1.33496 0.62793 2.5127 0.470703 3.6123 -0.392578c22.7734 -16.5693 47.7451 -28.8193 74.915 -36.123c7.38184 -1.96289 14.7637 -4.00488 22.459 -3.84766c15.2344 0 30.2334 2.66992 45.2324 5.02539zM378.582 157.762
c9.6582 -29.5264 5.18262 -62.5078 -11.7012 -88.5c-2.27734 -3.6123 -5.10449 -6.43945 -9.50195 -7.38184c-4.63281 -1.02051 -8.79492 -0.314453 -12.25 2.98438c-18.2188 17.4326 -35.7305 35.5723 -53.7129 53.1631
c-6.83203 6.6748 -5.49707 15.7051 -0.392578 20.7305c16.8838 16.7266 33.6094 33.6104 50.415 50.415c3.21875 3.29785 7.06738 4.79004 11.543 4.47656c4.24023 -0.314453 7.61719 -2.27734 10.209 -5.6543c6.91016 -9.1875 11.9355 -19.3174 15.3916 -30.2334z
M147.632 68.9473c-12.4854 18.2188 -19.1611 38.2432 -19.082 60.3877c0 20.0244 5.41797 38.4785 15.9414 55.5186c4.86816 9.2666 16.0195 12.0156 23.6367 4.31934c10.7578 -10.6006 21.4375 -21.2812 32.1172 -31.9609
c6.83203 -6.75293 13.4287 -13.6631 20.3389 -20.2598c6.28223 -5.88965 5.96777 -15.2344 0.157227 -20.9668c-16.7266 -16.4912 -33.374 -33.0605 -49.9434 -49.7861c-5.96875 -6.04688 -14.8418 -5.49707 -19.3184 -1.57129
c-1.41309 1.25684 -2.74805 2.74902 -3.84766 4.31934zM256.628 382.115c2.04199 -2.43457 4.39746 -4.63281 6.91113 -7.45996c8.6377 2.04199 17.1973 3.21973 23.8721 9.65918c2.66992 2.59082 6.28223 2.43359 9.34473 0.470703
c2.66992 -1.72754 3.92676 -5.18262 3.0625 -8.48047c-1.17773 -4.47656 -6.2041 -6.59668 -10.5225 -5.10449c-6.91016 1.57031 -13.5068 0.470703 -20.4961 -1.88477c2.98438 -3.37695 6.43945 -5.41895 10.209 -6.98926
c1.17773 -0.470703 2.43457 -0.863281 3.5332 -1.49219c2.82715 -1.57031 4.31934 -4.79004 3.69141 -7.85254c-0.707031 -3.0625 -2.35645 -5.41797 -5.6543 -6.20312c-3.45508 -0.864258 -6.75293 0.313477 -8.48047 3.14062
c-0.707031 1.02051 -1.09961 2.27734 -1.49219 3.53418c-1.72754 5.49609 -4.79004 9.97266 -9.10938 13.9775c-6.43945 -0.785156 -12.25 -3.76953 -17.1191 -8.08789c-5.81152 -4.47656 -14.4492 0.941406 -12.1719 8.55859
c1.02051 3.29883 4.08398 5.49707 7.69531 5.34082c1.17871 0 2.27734 -0.393555 3.45605 -0.549805c4.24023 -0.785156 8.40234 -0.785156 13.0352 0.235352c-4.47559 5.73242 -9.42285 10.2871 -16.0195 12.7217c-1.25684 0.470703 -2.5918 1.09863 -3.69043 1.96289
c-5.96875 4.63281 -2.19922 13.8213 5.18262 13.6641c3.21973 0 6.125 -2.19922 7.22461 -5.41895c0.785156 -2.19824 1.33496 -4.55469 2.43457 -6.51758c1.41309 -2.5127 3.21875 -4.94727 5.10352 -7.22461z" />
    <glyph glyph-name="campaignmonitor" unicode="&#xf2f7;" 
d="M507.797 358.973c2.29297 -3.43848 3.82129 -6.87695 3.82129 -11.0801v-307.2c0 -10.6982 -8.78809 -19.4863 -19.4873 -19.4863h-472.262c-6.49609 0 -12.6094 3.05664 -16.0479 8.40625l477.229 334.328v0c8.78809 5.73145 20.6328 3.82031 26.7461 -4.96777z
M30.9492 363.559c-8.78809 6.11328 -21.0146 3.82031 -27.1279 -4.96777c-2.29297 -3.05664 -3.43945 -6.87695 -3.43945 -10.6982v-307.964l227.344 186.459l-196.776 137.171z" />
    <glyph glyph-name="capcut" unicode="&#xf11b;" 
d="M512 389.183v-78.6055l-223.726 -117.87l223.726 -116.378v-80.8047l-97.2168 50.6494v-6.0459c0 -10.8369 -3.53418 -21.5166 -10.5234 -29.8408c-0.549805 -0.549805 -1.02051 -1.17773 -1.57031 -1.72754c-8.00977 -8.55957 -17.04 -11.7793 -21.3594 -13.2715
c-6.125 -2.12012 -11.4648 -2.74805 -15.2344 -2.9834l-325.89 0.706055c-5.18262 0.707031 -15.3916 2.82715 -24.0293 10.8369c-6.91016 6.43945 -10.0518 14.0566 -12.25 19.3965l-0.0791016 0.157227c-2.5127 6.20312 -3.84766 12.7998 -3.84766 19.4746v79.627
l133.575 70.2822l-133.575 68.4766v84.0244c0 10.8369 3.69043 21.3594 10.915 29.4473c0 0.0791016 0.0791016 0.157227 0.157227 0.236328c2.5918 2.90527 8.40234 9.26562 18.0615 13.5059c0.078125 0.0791016 0.078125 0.0791016 0.157227 0.0791016
c5.10449 2.19824 10.5225 3.14062 16.0195 3.14062h320.393c9.03027 0 17.9824 -2.19824 25.7568 -6.75293c0.0791016 -0.078125 0.157227 -0.078125 0.235352 -0.157227c3.37695 -2.04199 12.8008 -7.77441 19.1611 -19.3965l0.078125 -0.078125
c2.5918 -4.86914 3.84863 -10.3662 3.84863 -15.8623v-9.34473zM374.577 66.042l-163.181 86.9297l-164.986 -86.9297h328.167zM211.396 231.813l161.609 86.9297h-326.36z" />
    <glyph glyph-name="caraapp" unicode="&#xf357;" 
d="M256 448c141.35 0 256 -114.65 256 -256s-114.65 -256 -256 -256s-256 114.65 -256 256s114.65 256 256 256zM365.86 74.2871c5.81055 3.69043 11.1504 7.93164 16.8828 12.0928c-12.8779 20.418 -25.207 40.0498 -37.6924 59.7598
c-4.86914 -2.82715 -9.03125 -5.26074 -13.2715 -7.61719c-20.1035 -11.3867 -41.1484 -17.6689 -64.6279 -15.0771c-25.4434 2.82715 -46.0957 18.8467 -53.792 43.2686c-4.08301 12.957 -4.94727 26.1504 -2.5127 39.5781c4.00488 22.1445 15.3916 38.6357 36.5156 47.666
c25.207 10.7588 49.8643 8.08887 74.0508 -3.45508c4.94727 -2.35547 9.58105 -5.26074 14.9209 -8.24512c14.2129 19.2393 28.2695 38.3213 42.876 58.1104c-1.96289 1.80566 -3.45508 3.21973 -5.02637 4.63281c-1.02051 0.864258 -2.12012 1.72754 -3.21875 2.5918
c-15.627 11.9365 -33.375 19.3965 -52.2998 24.1074c-24.0293 5.96875 -48.2158 6.59668 -72.7168 2.98438c-27.5625 -4.08301 -53.084 -13.1924 -75.8574 -29.291c-35.8867 -25.4424 -55.4404 -60.2305 -57.875 -104.284
c-0.863281 -15.4697 0.62793 -30.8613 3.76953 -46.0957c6.36035 -30.626 21.9873 -55.5195 46.0957 -74.915c25.207 -20.1816 54.7334 -30.1553 86.5371 -32.8252c16.9619 -1.41309 34.0811 -0.785156 51.043 2.35645c23.5586 4.39746 45.9385 11.7002 66.1992 24.6572z
" />
    </font>
</defs>
</svg>
